<?xml version="1.0" encoding="iso-8859-1"?>
<svg width="42" height="42" viewBox="0 0 42 42" fill="none" xmlns="http://www.w3.org/2000/svg">
    <path d="M21.0005 0.166748C18.2646 0.166748 15.5555 0.705618 13.0279 1.75259C10.5003 2.79956 8.20362 4.33414 6.26906 6.26869C2.36205 10.1757 0.16712 15.4747 0.16712 21.0001C0.148907 25.8108 1.8146 30.4762 4.87545 34.1876L0.708787 38.3542C0.419708 38.6472 0.223883 39.0192 0.14602 39.4234C0.0681572 39.8275 0.111746 40.2457 0.271287 40.6251C0.444324 40.9999 0.724837 41.3149 1.07722 41.5301C1.4296 41.7452 1.83796 41.8508 2.25045 41.8334H21.0005C26.5258 41.8334 31.8248 39.6385 35.7318 35.7315C39.6389 31.8245 41.8338 26.5254 41.8338 21.0001C41.8338 15.4747 39.6389 10.1757 35.7318 6.26869C31.8248 2.36168 26.5258 0.166748 21.0005 0.166748ZM21.0005 37.6667H7.27129L9.20879 35.7292C9.59681 35.3389 9.81461 34.8109 9.81461 34.2605C9.81461 33.7101 9.59681 33.1821 9.20879 32.7917C6.48084 30.0668 4.78207 26.4804 4.40189 22.6434C4.02172 18.8064 4.98367 14.9563 7.12384 11.7491C9.26402 8.54183 12.45 6.17583 16.139 5.05419C19.828 3.93256 23.7918 4.12467 27.3551 5.59782C30.9183 7.07096 33.8606 9.73399 35.6805 13.1332C37.5005 16.5324 38.0856 20.4575 37.3361 24.2397C36.5867 28.0219 34.549 31.4273 31.5703 33.8756C28.5916 36.3239 24.8562 37.6637 21.0005 37.6667Z" fill="#072772"/>
</svg>
