<?xml version="1.0" encoding="iso-8859-1"?>
<svg width="50" height="50" viewBox="0 0 50 50" fill="none" xmlns="http://www.w3.org/2000/svg">
    <g clip-path="url(#clip0_209_205)">
        <path d="M25 38.6056C19.3774 38.6056 13.3262 36.4067 7.50045 32.2465C3.14542 29.1366 0.457425 26.0555 0.345105 25.9257C-0.115035 25.3944 -0.115035 24.6058 0.345105 24.0744C0.457425 23.9447 3.1453 20.8635 7.50045 17.7536C13.3263 13.5937 19.3775 11.3945 25 11.3945C30.6226 11.3945 36.6739 13.5935 42.4995 17.7536C46.8546 20.8635 49.5426 23.9446 49.6549 24.0744C50.115 24.6057 50.115 25.3943 49.6549 25.9257C49.5426 26.0553 46.8547 29.1366 42.4995 32.2465C36.6739 36.4066 30.6227 38.6056 25 38.6056ZM3.35241 25.0002C4.43942 26.1086 6.49093 28.0576 9.19962 29.9851C12.9131 32.6275 18.6687 35.7778 25 35.7778C31.3313 35.7778 37.087 32.6275 40.8004 29.9851C43.5087 28.0579 45.5604 26.1087 46.6476 25.0002C45.5607 23.8918 43.5091 21.9428 40.8004 20.0152C37.087 17.3727 31.3313 14.2226 25 14.2226C18.6687 14.2226 12.9131 17.3727 9.19962 20.0152C6.49127 21.9424 4.43964 23.8915 3.35241 25.0002Z" fill="#072772"/>
        <path d="M24.9996 33.7665C20.1658 33.7665 16.2334 29.8339 16.2334 25.0003C16.2334 20.1667 20.1658 16.2341 24.9996 16.2341C27.1254 16.2341 29.1761 17.0049 30.7737 18.4045C31.3611 18.9191 31.4201 19.8123 30.9056 20.3997C30.3911 20.9871 29.4977 21.046 28.9104 20.5316C27.8286 19.5838 26.4396 19.0619 24.9995 19.0619C21.725 19.0619 19.0611 21.7259 19.0611 25.0003C19.0611 28.2747 21.725 30.9387 24.9995 30.9387C28.274 30.9387 30.9378 28.2747 30.9378 25.0003C30.9378 24.2195 31.5709 23.5864 32.3517 23.5864C33.1325 23.5864 33.7656 24.2195 33.7656 25.0003C33.7659 29.8339 29.8333 33.7665 24.9996 33.7665Z" fill="#072772"/>
        <path d="M24.9997 27.828C23.4404 27.828 22.1719 26.5594 22.1719 25.0002C22.1719 23.4409 23.4404 22.1724 24.9997 22.1724C26.559 22.1724 27.8275 23.4409 27.8275 25.0002C27.8275 26.5594 26.559 27.828 24.9997 27.828Z" fill="#072772"/>
    </g>
    <defs>
        <clipPath id="clip0_209_205">
            <rect width="50" height="50" fill="white"/>
        </clipPath>
    </defs>
</svg>
