<?xml version="1.0" standalone="no"?>
<!DOCTYPE svg PUBLIC "-//W3C//DTD SVG 20010904//EN"
 "http://www.w3.org/TR/2001/REC-SVG-20010904/DTD/svg10.dtd">
<svg version="1.0" xmlns="http://www.w3.org/2000/svg"
 width="260.000000pt" height="180.000000pt" viewBox="0 0 260.000000 180.000000"
 preserveAspectRatio="xMidYMid meet">

<g transform="translate(0.000000,180.000000) scale(0.100000,-0.100000)"
fill="#1E3A8A" stroke="none">
<path d="M1210 1698 l-32 -52 28 -53 29 -54 68 3 68 3 27 48 26 49 -29 54 -29
54 -62 0 -62 0 -32 -52z"/>
<path d="M1107 1523 c-2 -5 -16 -28 -30 -53 l-26 -46 34 -57 34 -57 -68 0 -69
0 -26 -46 c-14 -26 -26 -52 -26 -58 0 -6 14 -32 30 -58 l30 -48 59 0 59 0 35
56 34 56 32 -56 31 -56 63 0 63 0 30 58 30 59 34 -59 34 -58 61 0 61 0 31 55
32 55 -92 157 -93 158 -65 3 -66 3 -30 -56 -30 -57 -32 56 -31 56 -64 0 c-36
0 -67 -3 -69 -7z"/>
<path d="M350 635 l0 -185 35 0 35 0 0 75 0 75 65 0 c62 0 65 1 65 25 0 23 -4
24 -62 27 l-63 3 -3 53 -3 52 80 0 81 0 0 30 0 30 -115 0 -115 0 0 -185z"/>
<path d="M1501 771 c-39 -34 -53 -53 -48 -64 9 -23 36 -21 64 5 l23 21 0 -116
0 -117 -35 0 c-31 0 -35 -3 -35 -25 l0 -25 100 0 100 0 0 25 c0 21 -5 25 -30
25 l-30 0 0 160 0 160 -27 0 c-19 -1 -46 -17 -82 -49z"/>
<path d="M1804 810 c-60 -24 -92 -108 -81 -215 11 -103 60 -152 144 -142 80 9
114 64 114 182 0 55 -5 84 -21 115 -30 58 -97 84 -156 60z m80 -63 c61 -61 36
-247 -33 -247 -10 0 -26 9 -37 21 -16 18 -19 37 -19 116 0 88 2 96 24 114 30
24 37 24 65 -4z"/>
<path d="M2095 811 c-97 -40 -115 -243 -30 -328 27 -27 40 -33 78 -33 79 0
124 55 133 163 11 144 -77 240 -181 198z m75 -51 c38 -20 53 -149 26 -215 -15
-35 -53 -54 -76 -40 -51 32 -53 214 -3 253 20 15 29 15 53 2z"/>
<path d="M1160 751 c-6 -25 -18 -42 -30 -46 -26 -8 -26 -35 0 -42 18 -5 20
-14 20 -93 0 -71 3 -90 18 -103 20 -18 78 -22 101 -8 21 14 6 39 -26 43 -28 3
-28 4 -31 81 l-3 77 36 0 c31 0 35 3 35 25 0 22 -4 25 -35 25 -34 0 -35 1 -35
40 0 33 -3 40 -20 40 -14 0 -22 -11 -30 -39z"/>
<path d="M647 694 c-23 -13 -26 -18 -16 -35 7 -14 16 -18 27 -13 9 4 35 8 57
8 36 1 40 -2 43 -25 3 -24 -1 -27 -40 -33 -24 -4 -58 -15 -76 -26 -26 -16 -32
-26 -32 -54 0 -60 65 -85 131 -51 26 14 30 14 35 0 3 -8 17 -15 30 -15 23 0
24 2 24 85 0 93 -16 147 -48 164 -29 16 -102 13 -135 -5z m113 -159 c0 -29
-32 -49 -66 -41 -50 13 -16 64 44 65 17 1 22 -5 22 -24z"/>
<path d="M927 693 c-15 -10 -34 -37 -43 -60 -22 -57 -12 -107 31 -150 27 -27
41 -33 74 -33 42 0 101 23 101 39 0 5 -7 14 -15 21 -12 10 -19 10 -27 2 -21
-21 -75 -14 -92 10 -21 29 -20 87 0 117 15 21 22 23 65 18 33 -4 51 -2 58 7
31 37 -101 62 -152 29z"/>
<path d="M410 220 c0 -47 4 -80 10 -80 6 0 10 33 10 80 0 47 -4 80 -10 80 -6
0 -10 -33 -10 -80z"/>
<path d="M1400 220 c0 -47 4 -80 10 -80 6 0 10 33 10 80 0 47 -4 80 -10 80 -6
0 -10 -33 -10 -80z"/>
<path d="M1630 271 c0 -23 -4 -28 -19 -24 -25 6 -51 -22 -51 -57 0 -35 13 -45
63 -46 l37 0 0 78 c0 63 -3 78 -15 78 -10 0 -15 -10 -15 -29z m0 -76 c0 -28
-4 -35 -19 -35 -10 0 -22 7 -25 16 -10 26 3 54 25 54 15 0 19 -7 19 -35z"/>
<path d="M60 215 l0 -75 45 0 c25 0 45 5 45 10 0 6 -16 10 -35 10 -31 0 -35 3
-35 25 0 20 5 25 25 25 14 0 25 5 25 10 0 6 -11 10 -25 10 -18 0 -25 5 -25 20
0 16 7 20 35 20 19 0 35 5 35 10 0 6 -20 10 -45 10 l-45 0 0 -75z"/>
<path d="M840 215 c0 -43 4 -75 10 -75 6 0 10 16 10 35 0 24 5 35 14 35 8 0
24 -16 36 -35 12 -19 29 -35 37 -35 14 0 14 3 1 23 -45 68 -44 64 -20 90 25
26 28 37 10 37 -7 0 -22 -14 -33 -30 -26 -39 -45 -39 -45 0 0 17 -4 30 -10 30
-6 0 -10 -32 -10 -75z"/>
<path d="M1970 215 l0 -75 28 0 c64 0 99 32 72 65 -8 10 -8 19 -2 32 18 32 -3
53 -53 53 l-45 0 0 -75z m78 33 c3 -14 -3 -18 -27 -18 -25 0 -31 4 -31 21 0
16 5 20 27 17 17 -2 29 -10 31 -20z m-3 -63 c0 -22 -31 -33 -47 -17 -17 17 -1
44 24 40 15 -2 23 -10 23 -23z"/>
<path d="M2227 257 c-10 -15 -13 -27 -7 -27 5 0 10 -18 10 -39 0 -43 11 -57
38 -46 16 6 16 7 0 16 -23 13 -25 69 -3 69 8 0 15 5 15 10 0 6 -6 10 -14 10
-8 0 -16 8 -18 17 -2 14 -7 12 -21 -10z"/>
<path d="M2307 257 c-10 -15 -13 -27 -8 -27 6 0 11 -19 13 -42 2 -36 7 -44 26
-46 25 -4 30 13 7 22 -9 3 -15 18 -15 36 0 20 5 30 15 30 8 0 15 5 15 10 0 6
-6 10 -14 10 -8 0 -16 8 -18 17 -2 14 -7 12 -21 -10z"/>
<path d="M170 243 c0 -5 7 -17 15 -27 13 -17 13 -23 -1 -44 -21 -32 -8 -43 15
-13 l19 24 11 -21 c6 -12 18 -22 26 -22 11 0 11 5 -3 30 -14 25 -15 33 -4 51
18 29 5 38 -14 10 l-16 -22 -15 20 c-14 21 -33 28 -33 14z"/>
<path d="M290 178 c0 -39 4 -68 10 -68 6 0 10 9 10 19 0 14 5 18 20 14 29 -8
50 14 50 52 0 39 -14 52 -57 52 l-33 0 0 -69z m65 17 c0 -23 -5 -31 -22 -33
-19 -3 -23 1 -23 26 0 33 8 44 30 40 9 -2 15 -14 15 -33z"/>
<path d="M476 234 c-31 -30 -10 -94 30 -94 34 0 54 20 54 55 0 50 -50 73 -84
39z m59 -39 c0 -23 -5 -31 -21 -33 -24 -3 -38 20 -28 50 4 13 13 18 27 16 17
-2 22 -10 22 -33z"/>
<path d="M590 195 c0 -30 5 -55 10 -55 6 0 10 15 10 34 0 25 7 39 22 50 12 9
19 19 15 22 -4 4 -13 1 -22 -6 -10 -8 -15 -9 -15 -1 0 6 -4 11 -10 11 -5 0
-10 -25 -10 -55z"/>
<path d="M677 232 c-21 -23 -21 -41 -1 -70 11 -16 24 -22 42 -20 34 4 39 24 6
23 -15 0 -29 6 -31 13 -3 8 7 12 31 12 40 0 47 17 20 44 -21 21 -47 20 -67 -2z
m58 -17 c0 -5 -10 -11 -22 -13 -16 -2 -23 2 -23 13 0 11 7 15 23 13 12 -2 22
-7 22 -13z"/>
<path d="M980 193 c0 -63 18 -72 22 -10 2 34 7 42 23 42 16 0 21 -8 23 -42 4
-56 22 -55 22 1 0 50 -12 63 -57 63 l-33 0 0 -54z"/>
<path d="M1118 239 c-25 -14 -24 -75 1 -89 41 -21 81 1 81 45 0 44 -43 67 -82
44z m57 -28 c9 -29 -5 -52 -29 -49 -37 5 -34 68 3 68 11 0 22 -8 26 -19z"/>
<path d="M1225 218 c19 -85 37 -99 55 -43 13 40 25 39 33 -5 10 -46 30 -36 48
25 11 37 13 55 5 52 -6 -2 -16 -21 -22 -43 l-11 -39 -13 43 c-15 48 -31 50
-44 4 -12 -42 -22 -40 -30 3 -4 19 -12 35 -17 35 -7 0 -8 -12 -4 -32z"/>
<path d="M1468 239 c-12 -6 -18 -22 -18 -44 0 -41 28 -61 68 -49 27 7 27 8 -7
13 -48 8 -53 31 -7 31 28 0 36 4 36 18 0 37 -36 52 -72 31z m52 -24 c0 -16
-35 -21 -44 -6 -8 12 4 21 26 21 10 0 18 -7 18 -15z"/>
<path d="M1696 235 c-11 -11 -13 -22 -7 -32 5 -9 5 -29 0 -46 -5 -16 -6 -34
-3 -38 9 -15 71 -10 84 6 16 19 7 31 -32 40 l-33 7 27 11 c29 11 57 57 35 57
-6 0 -21 3 -33 6 -13 3 -28 -1 -38 -11z m47 -20 c1 -5 -6 -11 -15 -13 -11 -2
-18 3 -18 13 0 17 30 18 33 0z m10 -80 c-3 -13 -53 -20 -53 -7 0 15 13 23 35
20 11 -2 19 -7 18 -13z"/>
<path d="M1818 238 c-17 -13 -21 -28 -19 -60 1 -24 37 -41 68 -33 31 7 22 19
-14 20 -14 0 -28 6 -30 13 -3 8 7 12 31 12 29 0 36 4 36 20 0 10 -9 24 -19 30
-25 13 -34 13 -53 -2z m43 -23 c0 -5 -9 -11 -21 -13 -20 -3 -27 8 -13 22 10 9
34 3 34 -9z"/>
<path d="M2113 224 c-15 -24 -15 -29 -2 -53 11 -19 23 -26 44 -26 15 0 30 5
32 10 2 6 -9 11 -23 10 -15 0 -29 6 -31 13 -3 8 7 12 31 12 40 0 47 17 20 44
-23 24 -51 19 -71 -10z m62 -9 c0 -5 -10 -11 -22 -13 -16 -2 -23 2 -23 13 0
11 7 15 23 13 12 -2 22 -7 22 -13z"/>
<path d="M2398 239 c-12 -6 -18 -22 -18 -44 0 -41 28 -61 68 -49 27 7 27 8 -7
13 -48 8 -53 31 -7 31 28 0 36 4 36 18 0 37 -36 52 -72 31z m52 -24 c0 -16
-35 -21 -44 -6 -8 12 4 21 26 21 10 0 18 -7 18 -15z"/>
<path d="M2500 195 c0 -30 5 -55 10 -55 6 0 10 18 10 39 0 31 4 41 20 46 11 3
20 11 20 16 0 13 -14 11 -28 -3 -9 -9 -12 -9 -12 0 0 7 -4 12 -10 12 -5 0 -10
-25 -10 -55z"/>
</g>
</svg>
