<svg width="645" height="344" viewBox="0 0 645 344" fill="none" xmlns="http://www.w3.org/2000/svg">
<g clip-path="url(#clip0_5_664)">
<path d="M391.403 191.19H13.2415C9.73086 191.186 6.36513 189.912 3.88272 187.647C1.40031 185.382 0.00395972 182.311 7.62939e-06 179.107V12.0826C0.00395972 8.87923 1.40031 5.80806 3.88272 3.54291C6.36513 1.27775 9.73086 0.00360622 13.2415 0H391.403C394.914 0.00360622 398.28 1.27775 400.762 3.54291C403.245 5.80806 404.641 8.87923 404.645 12.0826V179.107C404.641 182.311 403.245 185.382 400.762 187.647C398.28 189.912 394.914 191.186 391.403 191.19ZM13.2415 1.42149C10.1439 1.42469 7.17412 2.54893 4.98377 4.5476C2.79341 6.54626 1.56134 9.25611 1.55783 12.0826V179.107C1.56134 181.934 2.79341 184.644 4.98377 186.642C7.17412 188.641 10.1439 189.765 13.2415 189.769H391.403C394.501 189.765 397.471 188.641 399.661 186.642C401.851 184.644 403.083 181.934 403.087 179.107V12.0826C403.083 9.25611 401.851 6.54626 399.661 4.5476C397.471 2.54893 394.501 1.42469 391.403 1.42149H13.2415Z" fill="#3F3D56"/>
<path d="M72.6335 41.5785C76.5052 41.5785 79.6437 38.7146 79.6437 35.1819C79.6437 31.6491 76.5052 28.7852 72.6335 28.7852C68.7619 28.7852 65.6233 31.6491 65.6233 35.1819C65.6233 38.7146 68.7619 41.5785 72.6335 41.5785Z" fill="#CCCCCC"/>
<path d="M72.6335 65.7438C76.5052 65.7438 79.6437 62.8799 79.6437 59.3471C79.6437 55.8143 76.5052 52.9504 72.6335 52.9504C68.7619 52.9504 65.6233 55.8143 65.6233 59.3471C65.6233 62.8799 68.7619 65.7438 72.6335 65.7438Z" fill="#CCCCCC"/>
<path d="M72.6335 89.9091C76.5052 89.9091 79.6437 87.0452 79.6437 83.5124C79.6437 79.9796 76.5052 77.1157 72.6335 77.1157C68.7619 77.1157 65.6233 79.9796 65.6233 83.5124C65.6233 87.0452 68.7619 89.9091 72.6335 89.9091Z" fill="#CCCCCC"/>
<path d="M72.6335 114.074C76.5052 114.074 79.6437 111.21 79.6437 107.678C79.6437 104.145 76.5052 101.281 72.6335 101.281C68.7619 101.281 65.6233 104.145 65.6233 107.678C65.6233 111.21 68.7619 114.074 72.6335 114.074Z" fill="#CCCCCC"/>
<path d="M190.639 162.405C194.51 162.405 197.649 159.541 197.649 156.008C197.649 152.475 194.51 149.612 190.639 149.612C186.767 149.612 183.628 152.475 183.628 156.008C183.628 159.541 186.767 162.405 190.639 162.405Z" fill="#CCCCCC"/>
<path d="M140.009 162.405C143.881 162.405 147.02 159.541 147.02 156.008C147.02 152.475 143.881 149.612 140.009 149.612C136.138 149.612 132.999 152.475 132.999 156.008C132.999 159.541 136.138 162.405 140.009 162.405Z" fill="#CCCCCC"/>
<path d="M295.013 162.405C298.885 162.405 302.023 159.541 302.023 156.008C302.023 152.475 298.885 149.612 295.013 149.612C291.141 149.612 288.003 152.475 288.003 156.008C288.003 159.541 291.141 162.405 295.013 162.405Z" fill="#CCCCCC"/>
<path d="M242.047 162.405C245.919 162.405 249.057 159.541 249.057 156.008C249.057 152.475 245.919 149.612 242.047 149.612C238.175 149.612 235.037 152.475 235.037 156.008C235.037 159.541 238.175 162.405 242.047 162.405Z" fill="#CCCCCC"/>
<path d="M338.242 35.8926H107.685C107.478 35.8926 107.28 35.8177 107.134 35.6844C106.988 35.5511 106.906 35.3703 106.906 35.1818C106.906 34.9933 106.988 34.8125 107.134 34.6793C107.28 34.546 107.478 34.4711 107.685 34.4711H338.242C338.449 34.4711 338.647 34.546 338.793 34.6793C338.939 34.8125 339.021 34.9933 339.021 35.1818C339.021 35.3703 338.939 35.5511 338.793 35.6844C338.647 35.8177 338.449 35.8926 338.242 35.8926Z" fill="#CCCCCC"/>
<path d="M338.242 60.0578H107.685C107.478 60.0578 107.28 59.9829 107.134 59.8497C106.988 59.7164 106.906 59.5356 106.906 59.3471C106.906 59.1586 106.988 58.9778 107.134 58.8445C107.28 58.7112 107.478 58.6364 107.685 58.6364H338.242C338.449 58.6364 338.647 58.7112 338.793 58.8445C338.939 58.9778 339.021 59.1586 339.021 59.3471C339.021 59.5356 338.939 59.7164 338.793 59.8497C338.647 59.9829 338.449 60.0578 338.242 60.0578Z" fill="#CCCCCC"/>
<path d="M338.242 84.2231H107.685C107.478 84.2231 107.28 84.1482 107.134 84.0149C106.988 83.8817 106.906 83.7009 106.906 83.5124C106.906 83.3239 106.988 83.1431 107.134 83.0098C107.28 82.8765 107.478 82.8016 107.685 82.8016H338.242C338.449 82.8016 338.647 82.8765 338.793 83.0098C338.939 83.1431 339.021 83.3239 339.021 83.5124C339.021 83.7009 338.939 83.8817 338.793 84.0149C338.647 84.1482 338.449 84.2231 338.242 84.2231Z" fill="#CCCCCC"/>
<path d="M338.242 108.388H107.685C107.478 108.388 107.28 108.314 107.134 108.18C106.988 108.047 106.906 107.866 106.906 107.678C106.906 107.489 106.988 107.308 107.134 107.175C107.28 107.042 107.478 106.967 107.685 106.967H338.242C338.449 106.967 338.647 107.042 338.793 107.175C338.939 107.308 339.021 107.489 339.021 107.678C339.021 107.866 338.939 108.047 338.793 108.18C338.647 108.314 338.449 108.388 338.242 108.388Z" fill="#CCCCCC"/>
<path d="M151.304 132.554H128.715C127.683 132.553 126.693 132.178 125.963 131.512C125.233 130.845 124.822 129.942 124.821 129V109.81C124.822 108.868 125.233 107.965 125.963 107.298C126.693 106.632 127.683 106.257 128.715 106.256H151.304C152.336 106.257 153.326 106.632 154.056 107.298C154.786 107.965 155.197 108.868 155.198 109.81V129C155.197 129.942 154.786 130.845 154.056 131.512C153.326 132.178 152.336 132.553 151.304 132.554Z" fill="#072772"/>
<path d="M201.933 132.554H179.344C178.312 132.553 177.322 132.178 176.592 131.512C175.862 130.845 175.451 129.942 175.45 129V85.6447C175.451 84.7025 175.862 83.7992 176.592 83.133C177.322 82.4668 178.312 82.092 179.344 82.0909H201.933C202.965 82.092 203.955 82.4668 204.685 83.133C205.416 83.7992 205.826 84.7025 205.827 85.6447V129C205.826 129.942 205.416 130.845 204.685 131.512C203.955 132.178 202.965 132.553 201.933 132.554Z" fill="#072772"/>
<path d="M253.341 132.554H230.753C229.72 132.553 228.73 132.178 228 131.512C227.27 130.845 226.859 129.942 226.858 129V61.4794C226.859 60.5372 227.27 59.6339 228 58.9677C228.73 58.3015 229.72 57.9267 230.753 57.9257H253.341C254.374 57.9267 255.364 58.3015 256.094 58.9677C256.824 59.6339 257.234 60.5372 257.236 61.4794V129C257.234 129.942 256.824 130.845 256.094 131.512C255.364 132.178 254.374 132.553 253.341 132.554Z" fill="#072772"/>
<path d="M306.307 132.554H283.719C282.686 132.553 281.696 132.178 280.966 131.512C280.236 130.845 279.825 129.942 279.824 129V38.0248C279.825 37.0826 280.236 36.1793 280.966 35.5131C281.696 34.8469 282.686 34.4721 283.719 34.4711H306.307C307.34 34.4721 308.33 34.8469 309.06 35.5131C309.79 36.1793 310.2 37.0826 310.202 38.0248V129C310.2 129.942 309.79 130.845 309.06 131.512C308.33 132.178 307.34 132.553 306.307 132.554Z" fill="#072772"/>
<path d="M516.771 339.98C509.767 334.579 505.512 326.048 506.628 317.743C507.744 309.437 514.655 301.802 523.619 300.038C532.583 298.274 542.802 303.157 545.524 311.147C547.023 295.742 548.749 279.691 557.725 266.573C565.853 254.694 579.929 246.194 595.185 244.673C610.441 243.153 626.504 248.896 636.019 259.884C645.533 270.871 647.863 286.845 641.199 299.46C636.29 308.752 627.246 315.668 617.77 321.294C587.15 339.322 550.425 346.653 514.352 341.939L516.771 339.98Z" fill="#F2F2F2"/>
<path d="M620.932 249.214C608.344 258.57 596.796 269.034 586.455 280.455C570.27 298.266 557.174 318.236 547.621 339.669C546.922 341.233 549.705 341.914 550.396 340.367C566.025 305.534 590.977 274.833 622.967 251.071C624.404 250.004 622.357 248.156 620.932 249.214Z" fill="white"/>
<path d="M442.897 144.322C442.011 144.32 441.128 144.239 440.26 144.081H440.259C440.101 144.052 439.942 144.021 439.784 143.987L249.03 103.461C246.958 103.021 245.582 101.831 245.829 100.694C245.933 100.359 246.136 100.057 246.417 99.8211C246.697 99.5851 247.043 99.4242 247.417 99.3563C248.338 99.1247 249.307 99.105 250.238 99.299L442.176 135.875C446.498 136.698 449.498 139.119 449.006 141.385C448.749 142.57 447.605 143.49 445.784 143.973C444.844 144.213 443.872 144.33 442.897 144.322Z" fill="#3F3D56"/>
<path d="M402.489 138.715C403.476 139.245 404.578 139.57 405.718 139.669C406.858 139.767 408.008 139.637 409.086 139.286C410.165 138.935 411.146 138.373 411.961 137.639C412.776 136.905 413.404 136.017 413.802 135.037L441.63 135.566L433.921 124.399L408.677 125.608C406.829 125.107 404.843 125.243 403.097 125.988C401.351 126.734 399.965 128.038 399.203 129.654C398.44 131.269 398.353 133.084 398.959 134.754C399.564 136.424 400.82 137.834 402.489 138.715V138.715Z" fill="#FFB8B8"/>
<path d="M414.576 134.659L414.431 126.876C414.42 126.072 414.74 125.294 415.326 124.695C415.912 124.096 416.723 123.719 417.599 123.638L467.606 119.234L509.271 106.769C510.528 106.393 511.855 106.248 513.174 106.344C514.494 106.44 515.779 106.774 516.955 107.328C518.132 107.881 519.176 108.642 520.027 109.566C520.878 110.491 521.519 111.561 521.913 112.714C522.307 113.867 522.446 115.079 522.322 116.282C522.198 117.484 521.813 118.652 521.19 119.717C520.567 120.782 519.718 121.724 518.692 122.487C517.666 123.25 516.485 123.82 515.216 124.163L469.099 136.622L418.169 137.802C417.399 137.819 416.644 137.605 416.021 137.192C415.398 136.78 414.94 136.191 414.719 135.518C414.629 135.239 414.581 134.95 414.576 134.659Z" fill="#3F3D56"/>
<path d="M488.579 335.316L479.029 335.315L474.487 301.706L488.58 301.707L488.579 335.316Z" fill="#FFB8B8"/>
<path d="M491.014 343.762L460.223 343.761V343.406C460.223 341.97 460.533 340.548 461.136 339.221C461.738 337.894 462.621 336.689 463.734 335.673C464.847 334.658 466.168 333.852 467.622 333.303C469.076 332.753 470.634 332.47 472.208 332.47H472.209L491.015 332.471L491.014 343.762Z" fill="#2F2E41"/>
<path d="M516.62 335.316L507.07 335.315L502.528 301.706L516.621 301.707L516.62 335.316Z" fill="#FFB8B8"/>
<path d="M519.055 343.762L488.264 343.761V343.406C488.264 341.97 488.574 340.548 489.176 339.221C489.779 337.894 490.662 336.689 491.774 335.673C492.887 334.658 494.209 333.852 495.663 333.303C497.117 332.753 498.675 332.47 500.249 332.47H500.25L519.056 332.471L519.055 343.762Z" fill="#2F2E41"/>
<path d="M523.028 199.487L520.748 322.939C520.741 323.33 520.645 323.716 520.468 324.071C520.29 324.427 520.033 324.745 519.715 325.007C519.396 325.268 519.021 325.466 518.615 325.589C518.208 325.713 517.778 325.758 517.351 325.723L506.176 324.796C505.444 324.735 504.758 324.439 504.241 323.961C503.724 323.483 503.409 322.854 503.352 322.184L496.81 245.178C496.795 244.997 496.704 244.829 496.557 244.707C496.41 244.585 496.217 244.519 496.018 244.523C495.82 244.526 495.63 244.599 495.488 244.726C495.346 244.853 495.263 245.025 495.255 245.206L491.985 323.975C491.955 324.71 491.614 325.405 491.033 325.915C490.453 326.426 489.678 326.71 488.872 326.71H476.888C476.095 326.71 475.331 326.434 474.753 325.938C474.175 325.442 473.827 324.764 473.778 324.041L465.389 198.777L515.239 187.405L523.028 199.487Z" fill="#2F2E41"/>
<path d="M486.87 83.5675C497.436 83.5675 506.001 75.7519 506.001 66.1109C506.001 56.4699 497.436 48.6543 486.87 48.6543C476.305 48.6543 467.739 56.4699 467.739 66.1109C467.739 75.7519 476.305 83.5675 486.87 83.5675Z" fill="#FFB8B8"/>
<path d="M463.682 203.16C463.351 202.868 463.086 202.518 462.903 202.132C462.721 201.746 462.624 201.331 462.619 200.91L461.329 116.728C461.251 112.446 462.663 108.251 465.361 104.747C468.06 101.243 471.906 98.6088 476.348 97.2241C478.14 89.8043 487.679 88.8749 493.24 88.986C494.628 89.0132 495.989 89.3455 497.206 89.9546C498.423 90.5637 499.461 91.4316 500.233 92.4849L504.219 97.9411L513.006 102.641C517.072 104.806 520.279 108.095 522.165 112.031C524.051 115.968 524.517 120.349 523.498 124.543L522.145 130.158C517.382 150.03 517.835 170.648 523.468 190.329L526.19 199.8C526.331 200.293 526.342 200.81 526.22 201.307C526.099 201.805 525.848 202.269 525.49 202.66C525.132 203.052 524.676 203.359 524.162 203.558C523.647 203.756 523.087 203.839 522.53 203.8L519.369 203.577C518.548 203.521 517.776 203.202 517.187 202.677C516.598 202.152 516.231 201.455 516.15 200.707L515.627 195.933C515.617 195.846 515.572 195.765 515.501 195.705C515.429 195.646 515.336 195.613 515.239 195.613C515.143 195.613 515.05 195.646 514.978 195.705C514.906 195.765 514.861 195.846 514.852 195.933L514.345 200.555C514.26 201.336 513.863 202.061 513.23 202.592C512.596 203.123 511.771 203.423 510.912 203.435L466.178 204.063C466.159 204.063 466.141 204.064 466.122 204.064C465.21 204.066 464.334 203.741 463.682 203.16Z" fill="#3F3D56"/>
<path d="M488.367 76.1732C488.445 78.6409 490.323 80.0685 492.628 81.3611C494.933 82.6536 497.628 83.2141 500.267 83.7547C500.622 83.9265 501.019 84.0121 501.42 84.0031C501.822 83.9941 502.214 83.8909 502.559 83.7034C502.903 83.5159 503.19 83.2504 503.389 82.9327C503.589 82.6149 503.696 82.2556 503.699 81.8893L506.12 73.486C506.976 70.8016 507.6 68.0599 507.984 65.2861C508.567 59.949 507.181 54.2077 503.098 50.3489C499.016 46.4901 491.936 45.1192 487.044 48.0924C481.238 41.3263 454.701 56.2752 461.247 60.9802C462.411 61.8173 464.192 60.7581 465.67 60.6555C467.148 60.5528 468.805 60.7901 469.744 61.8369C470.97 63.2045 470.436 65.2417 470.942 66.9477C471.151 67.548 471.488 68.1046 471.934 68.5853C472.38 69.0661 472.926 69.4615 473.54 69.7488C474.154 70.0361 474.825 70.2096 475.513 70.2593C476.201 70.309 476.893 70.2339 477.55 70.0383C478.772 69.4888 479.921 68.8143 480.977 68.0279C482.11 67.3388 483.543 66.8296 484.82 67.2642C486.502 67.8371 487.1 69.7165 487.252 71.3492C487.508 72.9776 487.881 74.589 488.367 76.1732Z" fill="#2F2E41"/>
<path d="M630.086 344H333.321C333.114 344 332.916 343.925 332.77 343.792C332.624 343.659 332.542 343.478 332.542 343.289C332.542 343.101 332.624 342.92 332.77 342.787C332.916 342.653 333.114 342.578 333.321 342.578H630.086C630.293 342.578 630.491 342.653 630.637 342.787C630.783 342.92 630.865 343.101 630.865 343.289C630.865 343.478 630.783 343.659 630.637 343.792C630.491 343.925 630.293 344 630.086 344Z" fill="#3F3D56"/>
<path opacity="0.2" d="M483.899 122.959L480.783 157.785L464.426 194.033L488.573 158.496L483.899 122.959Z" fill="black"/>
<path d="M460.601 207.532C461.494 206.877 462.219 206.053 462.725 205.115C463.231 204.178 463.505 203.151 463.528 202.106C463.552 201.061 463.324 200.025 462.861 199.069C462.398 198.113 461.711 197.262 460.849 196.575L471.27 173.024L457.092 175.636L449.369 197.6C448.2 198.999 447.634 200.74 447.778 202.495C447.922 204.249 448.767 205.894 450.151 207.118C451.536 208.342 453.364 209.061 455.29 209.137C457.216 209.213 459.106 208.642 460.601 207.532V207.532Z" fill="#FFB8B8"/>
<path d="M459.843 197.145L451.817 194.505C450.99 194.229 450.307 193.681 449.901 192.968C449.495 192.255 449.396 191.429 449.624 190.653L462.864 146.431L464.882 106.465C464.943 105.258 465.266 104.075 465.833 102.984C466.399 101.892 467.198 100.914 468.182 100.107C469.166 99.2999 470.317 98.6792 471.566 98.2813C472.816 97.8834 474.14 97.7161 475.461 97.7892C476.782 97.8622 478.074 98.1742 479.261 98.707C480.449 99.2397 481.509 99.9826 482.379 100.892C483.249 101.802 483.913 102.861 484.33 104.007C484.748 105.153 484.912 106.363 484.813 107.567L481.208 151.33L464.339 195.196C464.083 195.859 463.595 196.426 462.951 196.811C462.307 197.197 461.542 197.378 460.774 197.328C460.456 197.305 460.143 197.244 459.843 197.145Z" fill="#3F3D56"/>
<path d="M338.242 132.554H107.685C107.478 132.554 107.28 132.479 107.134 132.346C106.988 132.212 106.906 132.031 106.906 131.843C106.906 131.654 106.988 131.474 107.134 131.34C107.28 131.207 107.478 131.132 107.685 131.132H338.242C338.449 131.132 338.647 131.207 338.793 131.34C338.939 131.474 339.021 131.654 339.021 131.843C339.021 132.031 338.939 132.212 338.793 132.346C338.647 132.479 338.449 132.554 338.242 132.554Z" fill="#3F3D56"/>
</g>
<defs>
<clipPath id="clip0_5_664">
<rect width="645" height="344" fill="white"/>
</clipPath>
</defs>
</svg>
