<svg width="639" height="439" viewBox="0 0 639 439" fill="none" xmlns="http://www.w3.org/2000/svg">
<g clip-path="url(#clip0_8_859)">
<path d="M634.829 362.578H318.694C317.588 362.577 316.528 362.129 315.746 361.333C314.964 360.537 314.524 359.458 314.523 358.333V4.24565C314.524 3.12003 314.964 2.04088 315.746 1.24494C316.528 0.449009 317.588 0.00128775 318.694 0H634.829C635.935 0.00128775 636.995 0.449009 637.777 1.24494C638.559 2.04088 638.999 3.12003 639 4.24565V358.333C638.999 359.458 638.559 360.537 637.777 361.333C636.995 362.129 635.935 362.577 634.829 362.578ZM318.694 1.69826C318.03 1.699 317.394 1.96762 316.925 2.44519C316.456 2.92275 316.192 3.57026 316.191 4.24565V358.333C316.192 359.008 316.456 359.656 316.925 360.133C317.394 360.611 318.03 360.879 318.694 360.88H634.829C635.493 360.879 636.129 360.611 636.598 360.133C637.067 359.656 637.331 359.008 637.332 358.333V4.24565C637.331 3.57026 637.067 2.92275 636.598 2.44519C636.129 1.96762 635.493 1.699 634.829 1.69826H318.694Z" fill="#3F3D56"/>
<path d="M455.074 135.012H376.666C375.56 135.01 374.5 134.563 373.718 133.767C372.936 132.971 372.496 131.892 372.495 130.766V50.9478C372.496 49.8222 372.936 48.743 373.718 47.9471C374.5 47.1512 375.56 46.7034 376.666 46.7021H455.074C456.18 46.7034 457.24 47.1512 458.022 47.9471C458.804 48.743 459.244 49.8222 459.245 50.9478V130.766C459.244 131.892 458.804 132.971 458.022 133.767C457.24 134.563 456.18 135.01 455.074 135.012ZM376.666 48.4004C376.002 48.4011 375.366 48.6698 374.897 49.1473C374.428 49.6249 374.164 50.2724 374.163 50.9478V130.766C374.164 131.441 374.428 132.089 374.897 132.566C375.366 133.044 376.002 133.313 376.666 133.313H455.074C455.738 133.313 456.374 133.044 456.843 132.566C457.312 132.089 457.576 131.441 457.577 130.766V50.9478C457.576 50.2724 457.312 49.6249 456.843 49.1473C456.374 48.6698 455.738 48.4011 455.074 48.4004H376.666Z" fill="#F2F2F2"/>
<path d="M432.553 144.777H354.144C353.149 144.775 352.195 144.373 351.491 143.656C350.788 142.94 350.392 141.969 350.391 140.956V61.1374C350.392 60.1243 350.788 59.1531 351.491 58.4367C352.195 57.7204 353.149 57.3174 354.144 57.3163H432.553C433.548 57.3174 434.502 57.7204 435.206 58.4367C435.909 59.153 436.305 60.1243 436.306 61.1374V140.956C436.305 141.969 435.909 142.94 435.206 143.656C434.502 144.373 433.548 144.775 432.553 144.777Z" fill="#072772"/>
<path d="M599.379 183.837H354.144C353.149 183.837 352.194 183.434 351.49 182.717C350.786 182.001 350.391 181.029 350.391 180.015C350.391 179.002 350.786 178.03 351.49 177.314C352.194 176.597 353.149 176.194 354.144 176.194H599.379C600.374 176.194 601.329 176.597 602.033 177.314C602.737 178.03 603.132 179.002 603.132 180.015C603.132 181.029 602.737 182.001 602.033 182.717C601.329 183.434 600.374 183.837 599.379 183.837Z" fill="#CCCCCC"/>
<path d="M540.155 210.16H354.144C353.149 210.16 352.194 209.757 351.49 209.04C350.786 208.324 350.391 207.352 350.391 206.339C350.391 205.325 350.786 204.353 351.49 203.637C352.194 202.92 353.149 202.517 354.144 202.517H540.155C541.151 202.517 542.106 202.92 542.81 203.637C543.514 204.353 543.909 205.325 543.909 206.339C543.909 207.352 543.514 208.324 542.81 209.04C542.106 209.757 541.151 210.16 540.155 210.16Z" fill="#CCCCCC"/>
<path d="M598.545 87.0357H490.108C489.112 87.0357 488.157 86.6331 487.453 85.9165C486.749 85.2 486.354 84.2281 486.354 83.2146C486.354 82.2012 486.749 81.2293 487.453 80.5127C488.157 79.7961 489.112 79.3936 490.108 79.3936H598.545C599.54 79.3936 600.495 79.7961 601.199 80.5127C601.903 81.2293 602.298 82.2012 602.298 83.2146C602.298 84.2281 601.903 85.2 601.199 85.9165C600.495 86.6331 599.54 87.0357 598.545 87.0357Z" fill="#CCCCCC"/>
<path d="M571.482 113.359H490.108C489.112 113.359 488.157 112.956 487.453 112.24C486.749 111.523 486.354 110.551 486.354 109.538C486.354 108.524 486.749 107.552 487.453 106.836C488.157 106.119 489.112 105.717 490.108 105.717H571.482C572.478 105.717 573.433 106.119 574.137 106.836C574.841 107.552 575.236 108.524 575.236 109.538C575.236 110.551 574.841 111.523 574.137 112.24C573.433 112.956 572.478 113.359 571.482 113.359Z" fill="#CCCCCC"/>
<path d="M599.379 236.483H354.144C353.149 236.483 352.194 236.08 351.49 235.363C350.786 234.647 350.391 233.675 350.391 232.662C350.391 231.648 350.786 230.676 351.49 229.96C352.194 229.243 353.149 228.84 354.144 228.84H599.379C600.374 228.84 601.329 229.243 602.033 229.96C602.737 230.676 603.132 231.648 603.132 232.662C603.132 233.675 602.737 234.647 602.033 235.363C601.329 236.08 600.374 236.483 599.379 236.483Z" fill="#CCCCCC"/>
<path d="M540.155 262.806H354.144C353.149 262.806 352.194 262.403 351.49 261.686C350.786 260.97 350.391 259.998 350.391 258.985C350.391 257.971 350.786 256.999 351.49 256.283C352.194 255.566 353.149 255.163 354.144 255.163H540.155C541.151 255.163 542.106 255.566 542.81 256.283C543.514 256.999 543.909 257.971 543.909 258.985C543.909 259.998 543.514 260.97 542.81 261.686C542.106 262.403 541.151 262.806 540.155 262.806Z" fill="#CCCCCC"/>
<path d="M599.379 289.129H354.144C353.149 289.129 352.194 288.726 351.49 288.009C350.786 287.293 350.391 286.321 350.391 285.308C350.391 284.294 350.786 283.322 351.49 282.606C352.194 281.889 353.149 281.486 354.144 281.486H599.379C600.374 281.486 601.329 281.889 602.033 282.606C602.737 283.322 603.132 284.294 603.132 285.308C603.132 286.321 602.737 287.293 602.033 288.009C601.329 288.726 600.374 289.129 599.379 289.129Z" fill="#CCCCCC"/>
<path d="M599.379 315.452H354.144C353.149 315.452 352.194 315.049 351.49 314.332C350.786 313.616 350.391 312.644 350.391 311.631C350.391 310.617 350.786 309.645 351.49 308.929C352.194 308.212 353.149 307.809 354.144 307.809H599.379C600.374 307.809 601.329 308.212 602.033 308.929C602.737 309.645 603.132 310.617 603.132 311.631C603.132 312.644 602.737 313.616 602.033 314.332C601.329 315.049 600.374 315.452 599.379 315.452Z" fill="#CCCCCC"/>
<path d="M401.631 329.726H222.293C221.187 329.725 220.127 329.277 219.345 328.481C218.563 327.685 218.123 326.606 218.122 325.481V212.546C218.123 211.421 218.563 210.342 219.345 209.546C220.127 208.75 221.187 208.302 222.293 208.301H401.631C402.736 208.302 403.796 208.75 404.578 209.546C405.36 210.342 405.8 211.421 405.801 212.546V325.481C405.8 326.606 405.36 327.685 404.578 328.481C403.796 329.277 402.736 329.725 401.631 329.726Z" fill="white"/>
<path d="M401.631 329.726H222.293C221.187 329.725 220.127 329.277 219.345 328.481C218.563 327.685 218.123 326.606 218.122 325.481V212.546C218.123 211.421 218.563 210.342 219.345 209.546C220.127 208.75 221.187 208.302 222.293 208.301H401.631C402.736 208.302 403.796 208.75 404.578 209.546C405.36 210.342 405.8 211.421 405.801 212.546V325.481C405.8 326.606 405.36 327.685 404.578 328.481C403.796 329.277 402.736 329.725 401.631 329.726ZM222.293 209.999C221.629 210 220.993 210.268 220.524 210.746C220.055 211.224 219.791 211.871 219.79 212.546V325.481C219.791 326.156 220.055 326.804 220.524 327.281C220.993 327.759 221.629 328.027 222.293 328.028H401.631C402.294 328.027 402.93 327.759 403.399 327.281C403.868 326.804 404.132 326.156 404.133 325.481V212.546C404.132 211.871 403.868 211.224 403.399 210.746C402.93 210.268 402.294 210 401.631 209.999H222.293Z" fill="#3F3D56"/>
<path d="M366.18 259.673H257.743C256.748 259.673 255.793 259.271 255.089 258.554C254.385 257.837 253.99 256.866 253.99 255.852C253.99 254.839 254.385 253.867 255.089 253.15C255.793 252.434 256.748 252.031 257.743 252.031H366.18C367.176 252.031 368.13 252.434 368.834 253.15C369.538 253.867 369.934 254.839 369.934 255.852C369.934 256.866 369.538 257.837 368.834 258.554C368.13 259.271 367.176 259.673 366.18 259.673Z" fill="#CCCCCC"/>
<path d="M366.18 285.996H257.743C256.748 285.996 255.793 285.594 255.089 284.877C254.385 284.16 253.99 283.189 253.99 282.175C253.99 281.162 254.385 280.19 255.089 279.473C255.793 278.757 256.748 278.354 257.743 278.354H366.18C367.176 278.354 368.13 278.757 368.834 279.473C369.538 280.19 369.934 281.162 369.934 282.175C369.934 283.189 369.538 284.16 368.834 284.877C368.13 285.594 367.176 285.996 366.18 285.996Z" fill="#CCCCCC"/>
<path d="M192.129 428.718H202.356L207.221 388.564L192.128 388.565L192.129 428.718Z" fill="#A0616A"/>
<path d="M189.521 425.319L209.66 425.318H209.661C213.065 425.319 216.329 426.695 218.736 429.145C221.143 431.595 222.495 434.918 222.495 438.383V438.808L189.522 438.809L189.521 425.319Z" fill="#2F2E41"/>
<path d="M112.504 424.212L122.616 425.767L133.322 386.806L120.067 384.51L112.504 424.212Z" fill="#A0616A"/>
<path d="M110.424 420.454L130.337 423.518L130.338 423.518C133.703 424.036 136.729 425.894 138.749 428.683C140.769 431.472 141.618 434.963 141.109 438.389L141.047 438.809L108.444 433.792L110.424 420.454Z" fill="#2F2E41"/>
<path d="M144.035 229.726L155.389 232.755L154.634 251.494L154.54 285.614C155.659 286.402 156.516 287.516 156.999 288.811C157.482 290.105 157.567 291.518 157.244 292.863C156.92 294.208 156.203 295.421 155.188 296.343C154.172 297.264 152.906 297.849 151.557 298.022C150.207 298.195 148.838 297.946 147.63 297.309C146.422 296.673 145.433 295.678 144.793 294.456C144.152 293.234 143.892 291.844 144.045 290.468C144.198 289.092 144.758 287.796 145.65 286.751L142.161 252.507L144.035 229.726Z" fill="#A0616A"/>
<path d="M142.058 208.261C142.121 206.45 142.694 204.696 143.71 203.208C144.727 201.72 146.142 200.561 147.788 199.87C149.328 199.169 151.037 198.94 152.703 199.213C154.369 199.486 155.921 200.248 157.168 201.406C158.064 202.221 158.775 203.226 159.25 204.349C159.726 205.472 159.955 206.688 159.922 207.911C159.952 218.889 157.517 234.89 157.493 235.05L157.454 235.305L140.857 240.994L142.058 208.261Z" fill="#072772"/>
<path d="M171.733 239.424L197.118 232.735L208.852 272.965L209.269 422.836L189.857 422.713L181.743 301.411L130.027 413.496L109.174 410.949L154.634 290.797C154.634 290.797 152.131 269.569 160.055 258.954L158.387 247.916L171.733 239.424Z" fill="#2F2E41"/>
<path d="M154.617 249.434C154.262 248.994 154.004 248.483 153.861 247.933C153.718 247.383 153.693 246.809 153.787 246.248L142.208 210.887C141.668 209.234 141.61 207.457 142.043 205.771C142.476 204.085 143.38 202.564 144.646 201.391L149.672 196.74L153.078 182.87L172.657 187.741L171.044 194.31L179.904 192.67L198.567 234.984L159.557 250.857L157.636 250.888C157.058 250.889 156.487 250.759 155.965 250.507C155.443 250.256 154.982 249.889 154.617 249.434Z" fill="#072772"/>
<path d="M181.791 219.577L192.977 215.958L202.179 232.207L220.016 261.094C221.375 261.151 222.685 261.626 223.773 262.458C224.86 263.289 225.674 264.437 226.107 265.749C226.54 267.062 226.571 268.478 226.197 269.809C225.822 271.14 225.06 272.324 224.01 273.204C222.96 274.084 221.672 274.619 220.317 274.738C218.962 274.857 217.603 274.555 216.421 273.871C215.238 273.186 214.288 272.153 213.695 270.907C213.102 269.661 212.894 268.261 213.1 266.892L192.17 239.849L181.791 219.577Z" fill="#A0616A"/>
<path d="M168.85 202.511C167.952 200.946 167.515 199.151 167.593 197.341C167.67 195.531 168.258 193.781 169.286 192.302C170.22 190.871 171.544 189.749 173.095 189.073C174.647 188.397 176.358 188.196 178.02 188.496C179.205 188.697 180.333 189.159 181.325 189.85C182.317 190.54 183.149 191.443 183.763 192.494C189.553 201.756 195.898 216.605 195.961 216.754L196.061 216.99L185.022 230.829L168.85 202.511Z" fill="#072772"/>
<path d="M167.564 180.289C176.155 180.289 183.119 173.199 183.119 164.453C183.119 155.708 176.155 148.618 167.564 148.618C158.973 148.618 152.008 155.708 152.008 164.453C152.008 173.199 158.973 180.289 167.564 180.289Z" fill="#A0616A"/>
<path d="M140.074 157.774C148.349 157.774 155.058 150.945 155.058 142.52C155.058 134.096 148.349 127.267 140.074 127.267C131.798 127.267 125.09 134.096 125.09 142.52C125.09 150.945 131.798 157.774 140.074 157.774Z" fill="#2F2E41"/>
<path d="M127.149 155.151C129.089 156.578 131.335 157.512 133.702 157.873C136.068 158.235 138.485 158.015 140.751 157.23C143.016 156.446 145.065 155.121 146.724 153.366C148.383 151.611 149.605 149.477 150.288 147.142C150.03 149.234 149.348 151.249 148.286 153.06C147.224 154.87 145.805 156.437 144.118 157.661C142.431 158.884 140.514 159.739 138.486 160.17C136.458 160.602 134.365 160.601 132.338 160.167C130.311 159.733 128.394 158.876 126.709 157.65C125.023 156.424 123.606 154.856 122.546 153.044C121.486 151.232 120.807 149.216 120.551 147.124C120.295 145.031 120.468 142.908 121.059 140.887C120.723 143.602 121.111 146.359 122.183 148.869C123.255 151.379 124.97 153.549 127.149 155.151Z" fill="#2F2E41"/>
<path d="M186.283 155.168C183.667 150.401 182.666 148.409 179.293 145.511C176.311 142.947 172.642 142.194 169.683 144.623C166.182 143.083 162.287 142.734 158.576 143.628C154.865 144.521 151.536 146.609 149.084 149.582C146.632 152.554 145.187 156.253 144.964 160.128C144.741 164.003 145.751 167.848 147.846 171.092C149.941 174.336 153.007 176.805 156.59 178.134C160.173 179.462 164.082 179.578 167.735 178.465C171.388 177.352 174.591 175.07 176.869 171.956C179.146 168.842 180.376 165.064 180.375 161.182C180.373 160.5 180.332 159.819 180.255 159.142C182.827 158.774 183.711 155.536 186.283 155.168Z" fill="#2F2E41"/>
<path d="M318.638 439H0.834131C0.612906 439 0.40074 438.911 0.244311 438.751C0.0878808 438.592 0 438.376 0 438.151C0 437.926 0.0878808 437.71 0.244311 437.55C0.40074 437.391 0.612906 437.302 0.834131 437.302H318.638C318.859 437.302 319.071 437.391 319.228 437.55C319.384 437.71 319.472 437.926 319.472 438.151C319.472 438.376 319.384 438.592 319.228 438.751C319.071 438.911 318.859 439 318.638 439Z" fill="#CCCCCC"/>
</g>
<defs>
<clipPath id="clip0_8_859">
<rect width="639" height="439" fill="white"/>
</clipPath>
</defs>
</svg>
