<svg width="610" height="338" viewBox="0 0 610 338" fill="none" xmlns="http://www.w3.org/2000/svg">
<g clip-path="url(#clip0_8_753)">
<path d="M476.497 50.7811H326.918V47.2092H259.093V50.7811H108.897C106.214 50.7811 103.64 52.0163 101.742 54.215C99.8447 56.4137 98.7786 59.3958 98.7786 62.5052V299.819C98.7786 302.929 99.8447 305.911 101.742 308.11C103.64 310.308 106.214 311.543 108.897 311.543H476.497C479.181 311.543 481.755 310.308 483.652 308.11C485.55 305.911 486.616 302.929 486.616 299.819V62.5039C486.616 59.3947 485.55 56.413 483.652 54.2146C481.754 52.0161 479.181 50.7811 476.497 50.7811Z" fill="#3F3D56"/>
<path d="M473.05 71.4988H112.345V307.256H473.05V71.4988Z" fill="#E6E6E6"/>
<path d="M457.876 83.9663H127.642V287.749H457.876V83.9663Z" fill="white"/>
<path d="M292.389 65.0699C294.432 65.0699 296.089 63.1507 296.089 60.7832C296.089 58.4158 294.432 56.4966 292.389 56.4966C290.346 56.4966 288.689 58.4158 288.689 60.7832C288.689 63.1507 290.346 65.0699 292.389 65.0699Z" fill="#072772"/>
<path d="M496.743 302.969H461.541V300.03C461.541 299.876 461.488 299.728 461.393 299.618C461.299 299.509 461.171 299.448 461.038 299.448H448.968C448.835 299.448 448.707 299.509 448.612 299.618C448.518 299.728 448.465 299.876 448.465 300.03V302.969H440.922V300.03C440.922 299.876 440.869 299.728 440.775 299.618C440.68 299.509 440.552 299.448 440.419 299.448H428.349C428.216 299.448 428.088 299.509 427.994 299.618C427.899 299.728 427.846 299.876 427.846 300.03V302.969H420.303V300.03C420.303 299.876 420.25 299.728 420.156 299.618C420.062 299.509 419.934 299.448 419.8 299.448H407.731C407.597 299.448 407.469 299.509 407.375 299.618C407.281 299.728 407.228 299.876 407.228 300.03V302.969H399.685V300.03C399.685 299.876 399.632 299.728 399.537 299.618C399.443 299.509 399.315 299.448 399.181 299.448H387.113C386.979 299.448 386.851 299.509 386.757 299.618C386.663 299.728 386.61 299.876 386.61 300.03V302.969H379.066V300.03C379.066 299.876 379.013 299.728 378.918 299.618C378.824 299.509 378.696 299.448 378.563 299.448H366.494C366.36 299.448 366.232 299.509 366.138 299.618C366.044 299.728 365.991 299.876 365.991 300.03V302.969H358.447V300.03C358.447 299.876 358.394 299.728 358.3 299.618C358.205 299.509 358.078 299.448 357.944 299.448H345.877C345.744 299.448 345.616 299.509 345.522 299.618C345.427 299.728 345.374 299.876 345.374 300.03V302.969H337.828V300.03C337.828 299.876 337.775 299.728 337.681 299.618C337.587 299.509 337.459 299.448 337.325 299.448H242.782C242.648 299.448 242.52 299.509 242.426 299.618C242.332 299.728 242.279 299.876 242.279 300.03V302.969H234.736V300.03C234.736 299.876 234.683 299.728 234.588 299.618C234.494 299.509 234.366 299.448 234.233 299.448H222.163C222.03 299.448 221.902 299.509 221.807 299.618C221.713 299.728 221.66 299.876 221.66 300.03V302.969H214.117V300.03C214.117 299.876 214.064 299.728 213.97 299.618C213.875 299.509 213.747 299.448 213.614 299.448H201.545C201.411 299.448 201.284 299.509 201.189 299.618C201.095 299.728 201.042 299.876 201.042 300.03V302.969H193.498V300.03C193.498 299.876 193.445 299.728 193.351 299.618C193.257 299.509 193.129 299.448 192.995 299.448H180.926C180.793 299.448 180.665 299.509 180.571 299.618C180.476 299.728 180.423 299.876 180.423 300.03V302.969H172.881V300.03C172.881 299.876 172.828 299.728 172.734 299.618C172.64 299.509 172.512 299.448 172.378 299.448H160.308C160.174 299.448 160.046 299.509 159.952 299.618C159.857 299.728 159.804 299.876 159.804 300.03V302.969H152.261V300.03C152.261 299.876 152.208 299.728 152.114 299.618C152.02 299.509 151.892 299.448 151.758 299.448H139.689C139.555 299.448 139.427 299.509 139.333 299.618C139.239 299.728 139.186 299.876 139.186 300.03V302.969H131.643V300.03C131.643 299.876 131.59 299.728 131.495 299.618C131.401 299.509 131.273 299.448 131.14 299.448H119.068C118.934 299.448 118.806 299.509 118.712 299.618C118.618 299.728 118.565 299.876 118.565 300.03V302.969H95.4342C92.2332 302.969 89.1633 304.443 86.8998 307.065C84.6364 309.688 83.3648 313.245 83.3648 316.954V323.277C83.3648 326.986 84.6364 330.543 86.8998 333.165C89.1633 335.788 92.2332 337.261 95.4342 337.261H496.743C499.944 337.261 503.014 335.788 505.277 333.166C507.541 330.543 508.812 326.986 508.812 323.278V316.955C508.812 313.246 507.541 309.689 505.277 307.066C503.014 304.443 499.944 302.97 496.743 302.97V302.969Z" fill="#3F3D56"/>
<path d="M365.775 98.2593H219.743V276.12H365.775V98.2593Z" fill="#E6E6E6"/>
<path d="M610 336.668H0V338H610V336.668Z" fill="#E6E6E6"/>
<path d="M550.758 290.128C559.023 300.404 559.45 315.508 559.45 315.508C559.45 315.508 546.477 313.95 538.211 303.674C529.946 293.398 529.519 278.294 529.519 278.294C529.519 278.294 542.492 279.852 550.758 290.128Z" fill="#072772"/>
<path d="M576.777 306.168C567.908 315.744 554.872 316.239 554.872 316.239C554.872 316.239 556.217 301.208 565.085 291.631C573.954 282.055 586.99 281.56 586.99 281.56C586.99 281.56 585.647 296.591 576.777 306.168Z" fill="#072772"/>
<path d="M574.573 336.667H541.952C541.326 336.667 540.713 336.464 540.182 336.079C539.651 335.694 539.225 335.144 538.951 334.492L531.849 317.577C531.601 316.987 531.487 316.335 531.517 315.68C531.546 315.025 531.72 314.39 532.02 313.834C532.32 313.278 532.737 312.82 533.232 312.503C533.727 312.185 534.284 312.019 534.85 312.02H581.676C582.241 312.019 582.798 312.185 583.293 312.503C583.788 312.82 584.206 313.278 584.506 313.834C584.806 314.39 584.979 315.025 585.009 315.68C585.039 316.335 584.924 316.987 584.676 317.577L577.574 334.493C577.3 335.145 576.874 335.695 576.343 336.08C575.813 336.464 575.199 336.668 574.573 336.668L574.573 336.667Z" fill="#E5E5E5"/>
<path d="M35.046 290.128C43.3112 300.404 43.7383 315.508 43.7383 315.508C43.7383 315.508 30.765 313.95 22.4999 303.674C14.2347 293.398 13.8075 278.294 13.8075 278.294C13.8075 278.294 26.7808 279.852 35.046 290.128Z" fill="#E5E5E5"/>
<path d="M53.6869 336.667H21.066C20.4401 336.667 19.8267 336.464 19.2961 336.079C18.7655 335.694 18.339 335.144 18.0654 334.492L10.9633 317.577C10.7153 316.987 10.6008 316.335 10.6306 315.68C10.6604 315.025 10.8335 314.39 11.1337 313.834C11.4338 313.278 11.8511 312.82 12.3462 312.503C12.8413 312.185 13.398 312.019 13.9639 312.02H60.7896C61.3554 312.019 61.9121 312.185 62.4073 312.503C62.9024 312.82 63.3197 313.278 63.6198 313.834C63.9199 314.39 64.093 315.025 64.1228 315.68C64.1526 316.335 64.0381 316.987 63.7901 317.577L56.688 334.493C56.4145 335.145 55.988 335.695 55.4574 336.08C54.9267 336.464 54.3134 336.668 53.6875 336.668L53.6869 336.667Z" fill="#E5E5E5"/>
<path d="M310.379 148.608C321.098 148.608 329.787 138.541 329.787 126.121C329.787 113.702 321.098 103.634 310.379 103.634C299.66 103.634 290.971 113.702 290.971 126.121C290.971 138.541 299.66 148.608 310.379 148.608Z" fill="#A0616A"/>
<path d="M265.724 276.486L278.258 185.066C278.924 180.206 280.476 175.565 282.811 171.454C285.145 167.342 288.209 163.854 291.798 161.221C295.386 158.588 299.418 156.871 303.624 156.183C307.83 155.496 312.114 155.854 316.191 157.234C323.32 159.623 329.424 165.006 333.311 172.33C337.197 179.654 338.588 188.394 337.211 196.843L324.103 278.485L265.724 276.486Z" fill="#072772"/>
<path d="M315.737 292.843C316.707 292.102 317.524 291.123 318.131 289.975C318.739 288.828 319.122 287.541 319.253 286.203C319.385 284.866 319.262 283.512 318.893 282.235C318.524 280.959 317.918 279.792 317.117 278.817L330.073 249.747L315.483 251.551L305.416 278.88C304.097 280.548 303.35 282.718 303.317 284.981C303.284 287.243 303.967 289.441 305.237 291.16C306.507 292.879 308.277 293.999 310.211 294.309C312.146 294.619 314.111 294.098 315.737 292.844L315.737 292.843Z" fill="#A0616A"/>
<path d="M318.512 273.69C317.795 273.572 317.126 273.205 316.595 272.636L311.638 267.329C311.102 266.753 310.732 266 310.578 265.172C310.424 264.345 310.493 263.482 310.775 262.702L320.682 235.493L319.277 181.732C319.687 178.244 321.277 175.088 323.696 172.958C326.115 170.828 329.165 169.899 332.175 170.375C335.185 170.851 337.909 172.693 339.747 175.495C341.585 178.298 342.387 181.832 341.977 185.32L344.38 219.115C345.11 229.372 342.601 239.587 337.317 247.861L321.867 272.061C321.57 272.526 321.192 272.914 320.757 273.198C320.322 273.483 319.84 273.658 319.343 273.712C319.066 273.743 318.787 273.735 318.512 273.69Z" fill="#072772"/>
<path d="M198.615 113.87C198.826 115.193 199.285 116.447 199.96 117.542C200.635 118.638 201.509 119.548 202.52 120.21C203.532 120.872 204.656 121.269 205.814 121.373C206.973 121.477 208.136 121.285 209.224 120.811L227.276 145.969L231.531 129.698L213.736 108.302C212.924 106.245 211.49 104.603 209.705 103.687C207.921 102.771 205.908 102.643 204.048 103.328C202.187 104.013 200.607 105.463 199.607 107.405C198.606 109.348 198.253 111.647 198.615 113.87H198.615Z" fill="#A0616A"/>
<path d="M212.756 124.297C213.129 123.578 213.682 123.008 214.341 122.663L220.493 119.443C221.16 119.096 221.902 118.995 222.62 119.153C223.338 119.311 223.997 119.721 224.507 120.327L242.269 141.506L285.545 160.967C286.839 161.857 287.97 163.033 288.871 164.429C289.773 165.825 290.429 167.414 290.8 169.103C291.172 170.793 291.253 172.551 291.038 174.277C290.823 176.003 290.317 177.662 289.548 179.161C288.78 180.661 287.764 181.969 286.558 183.013C285.353 184.057 283.982 184.816 282.523 185.245C281.064 185.675 279.547 185.767 278.058 185.517C276.568 185.267 275.136 184.68 273.843 183.788L246.047 173.175C237.61 169.955 230.47 163.295 225.954 154.432L212.745 128.512C212.491 128.014 212.33 127.459 212.274 126.884C212.217 126.309 212.266 125.726 212.416 125.175C212.5 124.868 212.615 124.574 212.758 124.298L212.756 124.297Z" fill="#072772"/>
<path opacity="0.1" d="M326.121 204.096L325.331 233.393L310.775 262.704L322.929 230.043L326.121 204.096Z" fill="black"/>
<path d="M297.236 114.85C299.237 117.595 302.625 118.369 305.75 118.687C312.097 119.332 321.326 118.287 327.528 116.627C327.971 121.598 326.764 126.958 329.291 131.047C330.475 126.097 331.164 121.004 331.344 115.871C331.42 113.672 331.39 111.392 330.618 109.37C329.846 107.349 328.162 105.634 326.223 105.616C327.664 104.35 329.351 103.514 331.137 103.182L324.997 99.6068L326.574 97.7309L315.457 96.9429L318.676 94.5727C313.83 93.8019 308.928 93.6233 304.05 94.0398C301.784 94.233 299.416 94.6027 297.581 96.1235C295.745 97.6443 294.685 100.667 295.824 102.9C294.398 103.171 293.054 103.86 291.922 104.901C290.789 105.942 289.905 107.301 289.353 108.849C288.535 111.252 288.609 113.922 288.862 116.484C289.281 120.58 290.102 124.607 291.311 128.487" fill="#2F2E41"/>
<path d="M380.204 58.5169L203.357 105.823C202.488 106.054 201.576 105.876 200.82 105.329C200.065 104.782 199.527 103.91 199.326 102.904L189.198 52.0764C188.998 51.0701 189.152 50.0133 189.624 49.1377C190.096 48.2621 190.849 47.6393 191.717 47.4059L368.564 0.0998745C369.432 -0.131175 370.344 0.0463293 371.1 0.593445C371.856 1.14056 372.393 2.01261 372.595 3.01832L382.722 53.8465C382.922 54.8528 382.769 55.9096 382.296 56.7851C381.824 57.6607 381.072 58.2835 380.204 58.5169Z" fill="white"/>
<path d="M380.204 58.5169L203.357 105.823C202.488 106.054 201.576 105.876 200.82 105.329C200.065 104.782 199.527 103.91 199.326 102.904L189.198 52.0764C188.998 51.0701 189.152 50.0133 189.624 49.1377C190.096 48.2621 190.849 47.6393 191.717 47.4059L368.564 0.0998745C369.432 -0.131175 370.344 0.0463293 371.1 0.593445C371.856 1.14056 372.393 2.01261 372.595 3.01832L382.722 53.8465C382.922 54.8528 382.769 55.9096 382.296 56.7851C381.824 57.6607 381.072 58.2835 380.204 58.5169ZM192.019 48.924C191.498 49.0641 191.047 49.4378 190.763 49.9632C190.48 50.4886 190.388 51.1228 190.508 51.7266L200.635 102.555C200.756 103.158 201.079 103.682 201.532 104.01C201.986 104.339 202.533 104.445 203.054 104.306L379.901 57C380.422 56.8601 380.874 56.4865 381.157 55.961C381.441 55.4355 381.533 54.8013 381.413 54.1974L371.285 3.36865C371.164 2.76504 370.842 2.2416 370.388 1.91325C369.935 1.58491 369.387 1.47849 368.866 1.61735L192.019 48.924Z" fill="#E6E6E6"/>
<path d="M253.383 48.7668C253.091 48.8443 252.815 48.9876 252.571 49.1887C252.326 49.3898 252.119 49.6447 251.959 49.9389C251.8 50.2331 251.692 50.5607 251.642 50.9031C251.592 51.2455 251.601 51.596 251.668 51.9345C251.735 52.273 251.859 52.593 252.032 52.876C252.206 53.1591 252.426 53.3997 252.68 53.5842C252.934 53.7687 253.217 53.8934 253.512 53.9513C253.808 54.0091 254.11 53.9989 254.402 53.9212L254.41 53.9192L359.227 25.881C359.816 25.7224 360.326 25.2995 360.646 24.7051C360.966 24.1108 361.069 23.3936 360.933 22.711C360.797 22.0285 360.433 21.4364 359.921 21.0647C359.408 20.6931 358.789 20.5722 358.2 20.7287L253.383 48.7668Z" fill="#E6E6E6"/>
<path d="M256.463 64.2243C256.171 64.3017 255.895 64.4451 255.651 64.6462C255.406 64.8473 255.199 65.1022 255.039 65.3963C254.88 65.6905 254.772 66.0181 254.722 66.3605C254.672 66.703 254.681 67.0535 254.748 67.392C254.815 67.7305 254.939 68.0504 255.112 68.3335C255.286 68.6165 255.506 68.8572 255.76 69.0417C256.014 69.2262 256.297 69.3509 256.592 69.4087C256.888 69.4665 257.19 69.4563 257.482 69.3787L257.49 69.3766L302.593 57.3118C303.183 57.155 303.695 56.7333 304.016 56.1393C304.337 55.5454 304.442 54.8278 304.307 54.1445C304.172 53.4611 303.808 52.8679 303.296 52.4953C302.783 52.1226 302.164 52.0011 301.574 52.1574L301.566 52.1594L256.463 64.2243Z" fill="#E6E6E6"/>
<path d="M224.729 83.0262C232.29 83.0262 238.42 75.9239 238.42 67.1626C238.42 58.4014 232.29 51.2991 224.729 51.2991C217.167 51.2991 211.037 58.4014 211.037 67.1626C211.037 75.9239 217.167 83.0262 224.729 83.0262Z" fill="#072772"/>
<path d="M224.344 76.314C223.896 76.4346 223.426 76.3832 223.005 76.1674L222.979 76.154L217.47 73.2562C217.214 73.1219 216.984 72.9305 216.792 72.693C216.6 72.4554 216.45 72.1763 216.351 71.8717C216.253 71.5671 216.207 71.243 216.216 70.9178C216.226 70.5926 216.29 70.2727 216.407 69.9766C216.523 69.6804 216.689 69.4136 216.894 69.1916C217.099 68.9696 217.34 68.7967 217.603 68.6827C217.866 68.5687 218.146 68.5159 218.427 68.5274C218.707 68.5388 218.983 68.6143 219.239 68.7494L222.809 70.6324L227.817 57.8824C228.051 57.2855 228.481 56.8209 229.011 56.5909C229.541 56.3609 230.128 56.3843 230.643 56.6559L230.613 56.7391L230.645 56.6554C231.16 56.9278 231.561 57.4258 231.759 58.04C231.957 58.6542 231.937 59.3344 231.703 59.9315L225.813 74.9302C225.677 75.2757 225.473 75.5802 225.219 75.82C224.964 76.0597 224.666 76.2283 224.346 76.3127L224.344 76.314Z" fill="white"/>
</g>
<defs>
<clipPath id="clip0_8_753">
<rect width="610" height="338" fill="white"/>
</clipPath>
</defs>
</svg>
