<svg width="507" height="311" viewBox="0 0 507 311" fill="none" xmlns="http://www.w3.org/2000/svg">
<g clip-path="url(#clip0_6_703)">
<path d="M46.7882 310.514L46.7645 310.638C46.7365 310.518 46.7095 310.395 46.6838 310.274C46.6369 310.078 46.5962 309.882 46.5578 309.685C45.0354 301.988 45.8732 294.108 48.9986 286.73C49.5993 285.289 50.2836 283.876 51.0513 282.488C53.9872 277.115 58.1493 272.231 63.3226 268.087C65.0024 266.707 66.9189 265.526 69.0142 264.58C69.3218 264.449 69.6311 264.325 69.9473 264.211C71.8851 263.456 74.0667 263.202 76.1917 263.484C76.9637 263.6 77.7118 263.802 78.4149 264.083C78.6615 264.18 78.8989 264.285 79.1318 264.398C80.5521 265.146 81.7649 266.122 82.6941 267.264C83.6233 268.406 84.249 269.689 84.532 271.034C84.9356 273.041 84.8433 275.091 84.2604 277.069C84.2103 277.258 84.1565 277.446 84.099 277.634C83.6857 278.952 83.1664 280.247 82.5444 281.512C76.3182 294.378 62.938 305.793 46.7882 310.514Z" fill="#F2F2F2"/>
<path d="M78.3734 264.125C73.5152 269.731 68.9259 275.481 64.6056 281.372C60.2904 287.258 56.2575 293.271 52.5068 299.409C50.4085 302.843 48.4021 306.312 46.4873 309.815C46.2753 310.203 46.9905 310.54 47.2052 310.148C50.6247 303.893 54.3356 297.749 58.3379 291.714C62.3376 285.686 66.6183 279.785 71.1799 274.012C73.7322 270.782 76.3693 267.597 79.0913 264.457C79.3957 264.106 78.6767 263.775 78.3734 264.125Z" fill="white"/>
<path d="M83.5718 277.103C79.9211 280.914 74.5474 283.415 68.6157 284.065C66.9609 284.246 65.2854 284.272 63.623 284.144C63.0911 284.104 63.0874 284.769 63.6147 284.809C69.8015 285.227 75.9439 283.669 80.7083 280.471C82.0447 279.574 83.2466 278.555 84.2897 277.435C84.6092 277.094 83.8891 276.764 83.5718 277.103Z" fill="white"/>
<path d="M52.391 297.773C51.5422 296.802 50.837 295.755 50.2895 294.653C49.0389 292.141 48.595 289.416 48.9986 286.73C49.5993 285.289 50.2836 283.875 51.0513 282.488C51.0978 282.543 51.1258 282.606 51.1325 282.672C51.1392 282.738 51.1244 282.804 51.0895 282.864C50.549 283.905 50.1603 284.992 49.9314 286.105C49.1097 290.073 50.2504 294.141 53.1104 297.443C53.1465 297.479 53.1706 297.522 53.1803 297.568C53.1899 297.614 53.1848 297.66 53.1654 297.704C53.1334 297.762 53.0831 297.812 53.0195 297.849C52.9559 297.887 52.8812 297.91 52.8029 297.917C52.7246 297.924 52.6454 297.915 52.5731 297.889C52.5008 297.864 52.4381 297.824 52.391 297.773Z" fill="white"/>
<path d="M69.138 264.158C68.1388 267.356 68.4363 270.727 69.9874 273.779C70.0423 273.855 70.1325 273.911 70.2383 273.934C70.3441 273.958 70.457 273.946 70.5525 273.903C70.646 273.858 70.7141 273.785 70.7428 273.701C70.7715 273.616 70.7586 273.526 70.7068 273.449C69.2544 270.553 68.985 267.361 69.9372 264.334C69.962 264.25 69.9451 264.161 69.8902 264.087C69.8353 264.013 69.7467 263.959 69.643 263.936C69.5393 263.913 69.4287 263.924 69.3345 263.965C69.2402 264.007 69.1698 264.076 69.138 264.158H69.138Z" fill="white"/>
<path d="M46.6863 294.446L46.7366 294.563C46.6424 294.468 46.5474 294.369 46.4547 294.271C46.3 294.116 46.1507 293.957 46.0027 293.797C40.2025 287.549 36.387 280.258 34.887 272.558C34.586 271.058 34.3741 269.551 34.2515 268.036C33.7438 262.183 34.6045 256.304 36.7894 250.705C37.4784 248.856 38.4924 247.095 39.801 245.476C39.9977 245.245 40.1998 245.02 40.4137 244.801C41.693 243.409 43.4781 242.37 45.5232 241.827C46.2742 241.643 47.0534 241.542 47.8387 241.529C48.1127 241.522 48.3841 241.527 48.6555 241.54C50.346 241.673 51.9842 242.084 53.4676 242.749C54.9509 243.413 56.2474 244.317 57.276 245.402C58.7939 247.028 59.8983 248.879 60.526 250.848C60.591 251.034 60.6522 251.221 60.7096 251.408C61.106 252.73 61.3954 254.07 61.5758 255.422C63.5037 269.139 58.257 284.239 46.6863 294.446Z" fill="#F2F2F2"/>
<path d="M47.8258 241.581C46.7665 248.359 46.0276 255.162 45.6091 261.991C45.1924 268.813 45.0984 275.642 45.327 282.477C45.4552 286.301 45.6847 290.122 46.0156 293.939C46.0521 294.361 46.8805 294.393 46.8435 293.965C46.2542 287.151 45.9865 280.325 46.0405 273.488C46.0958 266.657 46.4738 259.835 47.1743 253.021C47.5664 249.208 48.0596 245.404 48.6537 241.607C48.7201 241.183 47.8919 241.158 47.8258 241.581V241.581Z" fill="white"/>
<path d="M59.9358 251.134C58.9068 255.871 55.5947 260.091 50.7176 262.879C49.357 263.657 47.8888 264.306 46.3422 264.812C45.8479 264.975 46.2296 265.566 46.7198 265.404C52.4403 263.466 56.9782 259.794 59.3481 255.186C60.0127 253.893 60.4878 252.542 60.7637 251.161C60.8491 250.739 60.0206 250.716 59.9358 251.134V251.134Z" fill="white"/>
<path d="M44.2787 281.072C42.9654 280.529 41.7352 279.865 40.6131 279.093C38.0524 277.335 36.0833 275.087 34.887 272.558C34.586 271.058 34.3741 269.551 34.2515 268.036C34.3242 268.067 34.3856 268.113 34.4297 268.168C34.4738 268.224 34.4989 268.288 34.5027 268.354C34.626 269.478 34.911 270.586 35.3518 271.657C36.919 275.477 40.2824 278.654 44.7249 280.512C44.7777 280.53 44.8239 280.559 44.8588 280.596C44.8937 280.633 44.9163 280.676 44.9244 280.722C44.9295 280.785 44.9139 280.848 44.8792 280.905C44.8445 280.962 44.7919 281.01 44.7266 281.046C44.6613 281.081 44.5856 281.102 44.507 281.107C44.4285 281.112 44.3497 281.1 44.2787 281.072Z" fill="white"/>
<path d="M39.6668 245.056C40.6315 248.261 42.8444 251.135 45.9835 253.259C46.0763 253.306 46.1884 253.322 46.2955 253.303C46.4026 253.284 46.4961 253.232 46.5557 253.158C46.6122 253.083 46.6307 252.994 46.6072 252.908C46.5838 252.823 46.5202 252.748 46.4297 252.699C43.4684 250.676 41.3836 247.95 40.4759 244.913C40.4492 244.83 40.3832 244.758 40.2916 244.712C40.2001 244.667 40.0903 244.652 39.9853 244.671C39.8803 244.689 39.7884 244.74 39.729 244.812C39.6696 244.884 39.6473 244.972 39.6668 245.056L39.6668 245.056Z" fill="white"/>
<path d="M47.0449 310.596L47.1664 310.674C47.0228 310.634 46.8765 310.592 46.7329 310.55C46.4982 310.485 46.2662 310.417 46.0342 310.346C36.9568 307.59 28.8533 303.097 22.4258 297.258C21.1665 296.125 19.9772 294.946 18.8579 293.723C14.5049 289.01 11.2884 283.685 9.3747 278.022C8.71508 276.166 8.38871 274.244 8.40546 272.313C8.41651 272.034 8.4358 271.757 8.46897 271.479C8.61369 269.754 9.42126 268.106 10.7804 266.764C11.2893 266.284 11.8784 265.862 12.5312 265.511C12.7576 265.387 12.9896 265.274 13.2271 265.167C14.7404 264.548 16.3966 264.186 18.092 264.104C19.7875 264.023 21.4857 264.223 23.0803 264.693C25.4498 265.406 27.6212 266.488 29.4704 267.875C29.6499 268.004 29.8267 268.135 30.0008 268.268C31.221 269.21 32.3639 270.215 33.4222 271.275C44.2447 281.999 49.9501 296.992 47.0449 310.596Z" fill="#F2F2F2"/>
<path d="M12.5552 265.56C16.2077 271.729 20.1473 277.781 24.3739 283.716C28.5979 289.645 33.0979 295.44 37.8739 301.1C40.5461 304.266 43.3015 307.386 46.1399 310.459C46.454 310.8 47.1734 310.468 46.8553 310.124C41.789 304.637 36.9863 299.001 32.447 293.217C27.9131 287.438 23.6566 281.526 19.6774 275.481C17.4514 272.099 15.3158 268.68 13.2705 265.225C13.0417 264.838 12.3272 265.175 12.5552 265.56Z" fill="white"/>
<path d="M29.1653 268.372C31.4745 272.808 31.5135 277.796 29.274 282.255C28.6492 283.499 27.847 284.681 26.8836 285.776C26.5761 286.127 27.2941 286.46 27.5989 286.112C31.1194 282.005 32.4805 276.948 31.3868 272.04C31.0798 270.663 30.5744 269.319 29.8807 268.036C29.67 267.644 28.9561 267.983 29.1653 268.372Z" fill="white"/>
<path d="M36.0485 300.37C34.5776 300.48 33.0957 300.452 31.6327 300.288C28.296 299.914 25.13 298.872 22.4258 297.258C21.1665 296.125 19.9772 294.946 18.8579 293.723C18.94 293.717 19.0223 293.729 19.0969 293.757C19.1715 293.785 19.2357 293.828 19.2832 293.882C20.1405 294.776 21.1237 295.586 22.2132 296.298C26.0954 298.839 31.0601 300.061 36.0485 299.704C36.1054 299.697 36.1637 299.701 36.2179 299.717C36.272 299.733 36.3201 299.76 36.3577 299.795C36.4043 299.846 36.4335 299.906 36.4424 299.969C36.4513 300.032 36.4395 300.096 36.4082 300.154C36.377 300.212 36.3273 300.262 36.2642 300.3C36.2011 300.338 36.1267 300.362 36.0485 300.37Z" fill="white"/>
<path d="M8.01119 272.018C10.973 274.301 14.7646 275.765 18.8342 276.197C19.0579 276.221 19.2463 276.027 19.2484 275.865C19.2458 275.777 19.2014 275.694 19.1242 275.632C19.0471 275.57 18.9433 275.534 18.8342 275.532C14.9824 275.108 11.3977 273.713 8.59701 271.547C8.21302 271.25 7.62643 271.72 8.01116 272.018H8.01119Z" fill="white"/>
<path d="M103.592 222.841C104.401 222.396 105.078 221.813 105.577 221.135C106.075 220.456 106.382 219.698 106.477 218.914C106.571 218.13 106.45 217.339 106.122 216.596C105.794 215.853 105.268 215.178 104.58 214.616L107.183 167.957L93.932 169.152L94.7018 214.791C93.604 215.782 92.997 217.062 92.9957 218.388C92.9944 219.714 93.5989 220.995 94.6947 221.987C95.7905 222.98 97.3015 223.614 98.9413 223.772C100.581 223.929 102.236 223.598 103.592 222.841Z" fill="#FFB8B8"/>
<path d="M127.764 301.825L135.306 302.889L142.76 280.034L132.878 278.462L127.764 301.825Z" fill="#FFB8B8"/>
<path d="M148.619 310.567L124.917 307.22L126.527 299.866L141.071 301.919C142.274 302.089 143.423 302.447 144.453 302.974C145.483 303.5 146.374 304.185 147.075 304.988C147.776 305.791 148.273 306.697 148.538 307.654C148.803 308.611 148.83 309.601 148.619 310.567Z" fill="#2F2E41"/>
<path d="M107.065 304.856L114.722 304.856L118.365 281.135L107.064 281.136L107.065 304.856Z" fill="#FFB8B8"/>
<path d="M129.489 310.566L105.424 310.567L105.424 303.099L120.191 303.099C122.657 303.099 125.022 303.885 126.766 305.286C128.51 306.686 129.489 308.585 129.489 310.566L129.489 310.566Z" fill="#2F2E41"/>
<path d="M139.638 298.361C139.518 298.361 139.399 298.355 139.28 298.344L130.268 297.748C129.857 297.709 129.461 297.604 129.103 297.438C128.745 297.273 128.432 297.05 128.185 296.785C127.937 296.519 127.759 296.216 127.661 295.894C127.564 295.571 127.549 295.236 127.618 294.909L135.94 257.448L130.317 233.634C130.271 233.441 130.139 233.267 129.947 233.146C129.754 233.024 129.513 232.962 129.268 232.972C129.023 232.982 128.791 233.062 128.614 233.199C128.437 233.335 128.328 233.519 128.306 233.715L121.276 297.233C121.199 297.87 120.816 298.459 120.209 298.874C119.602 299.289 118.818 299.499 118.022 299.459L109.532 299.205C108.787 299.162 108.088 298.903 107.566 298.475C107.044 298.047 106.736 297.48 106.698 296.882L106.127 220.753L150.148 216.334L153.223 254.477L153.211 254.517L142.599 296.49C142.437 297.023 142.058 297.497 141.521 297.836C140.984 298.175 140.321 298.36 139.638 298.361Z" fill="#2F2E41"/>
<path d="M120.641 137.722C129.113 137.722 135.981 132.206 135.981 125.402C135.981 118.597 129.113 113.082 120.641 113.082C112.169 113.082 105.301 118.597 105.301 125.402C105.301 132.206 112.169 137.722 120.641 137.722Z" fill="#FFB8B8"/>
<path d="M135.095 226.317C132.696 226.329 130.343 225.788 128.314 224.759C120.883 221.029 112.443 222.512 108.074 223.727C107.64 223.849 107.178 223.891 106.721 223.849C106.265 223.807 105.826 223.683 105.438 223.486C105.054 223.293 104.729 223.032 104.489 222.723C104.248 222.415 104.098 222.066 104.048 221.705L96.1024 164.709C94.7708 155.159 101.933 146.181 113.133 143.36C113.554 143.254 113.982 143.154 114.417 143.059C117.902 142.3 121.552 142.163 125.11 142.659C128.668 143.155 132.047 144.271 135.01 145.929C138.028 147.605 140.552 149.792 142.404 152.336C144.257 154.88 145.393 157.719 145.732 160.653L152.421 218.031C152.467 218.402 152.404 218.777 152.239 219.126C152.073 219.475 151.809 219.788 151.467 220.041C149.122 221.783 142.316 226.317 135.095 226.317Z" fill="#072772"/>
<path d="M110.899 176.931L92.9713 175.348C92.4612 175.303 91.9692 175.17 91.5288 174.958C91.0884 174.747 90.7099 174.462 90.4192 174.122C90.1284 173.783 89.9322 173.397 89.8439 172.991C89.7556 172.585 89.7773 172.168 89.9075 171.769L94.4706 157.801C94.7724 155.707 96.0961 153.794 98.1514 152.482C100.207 151.17 102.826 150.566 105.435 150.802C108.044 151.039 110.429 152.097 112.069 153.744C113.708 155.391 114.467 157.493 114.18 159.589L114.857 173.973C114.876 174.384 114.785 174.795 114.589 175.176C114.393 175.557 114.097 175.899 113.721 176.18C113.346 176.461 112.899 176.673 112.412 176.803C111.925 176.932 111.409 176.976 110.899 176.931V176.931Z" fill="#072772"/>
<path d="M152.349 220.843C153.086 220.322 153.671 219.679 154.064 218.957C154.457 218.235 154.648 217.453 154.624 216.665C154.6 215.878 154.361 215.104 153.924 214.399C153.487 213.693 152.863 213.073 152.096 212.583L147.679 166.012L134.695 168.359L142.316 213.712C141.375 214.802 140.965 216.131 141.162 217.448C141.36 218.765 142.152 219.978 143.389 220.857C144.626 221.736 146.221 222.22 147.872 222.217C149.524 222.215 151.117 221.726 152.349 220.843V220.843Z" fill="#FFB8B8"/>
<path d="M129.717 174.003C129.341 173.723 129.045 173.38 128.849 172.999C128.653 172.619 128.562 172.208 128.581 171.796L129.258 157.412C128.971 155.317 129.73 153.215 131.37 151.568C133.009 149.92 135.394 148.863 138.003 148.626C140.612 148.389 143.232 148.993 145.287 150.305C147.342 151.617 148.666 153.53 148.968 155.625L153.531 169.593C153.661 169.992 153.683 170.408 153.594 170.814C153.506 171.22 153.31 171.606 153.019 171.946C152.728 172.285 152.35 172.571 151.909 172.782C151.469 172.994 150.977 173.127 150.467 173.172L132.54 174.755C132.03 174.8 131.513 174.756 131.026 174.627C130.539 174.497 130.092 174.284 129.717 174.003Z" fill="#072772"/>
<path d="M119.728 138.186C119.456 138.186 119.184 138.16 118.919 138.11L118.841 138.095C105.353 136.437 102.373 130.163 101.719 127.543C101.041 124.83 101.813 122.212 103.555 121.195C102.605 118.786 102.757 116.65 104.009 114.843C106.192 111.693 110.93 110.628 111.565 110.498C115.349 108.256 119.876 109.752 120.7 110.056C128.019 107.881 130.816 109.691 131.322 110.095C134.594 110.567 136.588 111.582 137.25 113.113C138.494 115.988 134.561 119.564 134.393 119.714L134.306 119.793L128.447 120.017C127.892 120.038 127.347 120.153 126.85 120.354C126.353 120.555 125.914 120.838 125.562 121.184C125.21 121.53 124.952 121.932 124.806 122.363C124.659 122.794 124.627 123.245 124.712 123.687C124.87 124.257 125.071 124.819 125.312 125.37C126.312 127.881 127.062 130.027 126.095 130.842C125.876 131 125.606 131.105 125.316 131.146C125.026 131.186 124.728 131.16 124.455 131.071C123.539 130.874 122.917 130.915 122.608 131.193C122.126 131.624 122.273 132.716 123.021 134.266C123.256 134.756 123.319 135.289 123.204 135.806C123.089 136.323 122.799 136.804 122.368 137.199C122.043 137.507 121.639 137.754 121.183 137.925C120.727 138.095 120.231 138.184 119.728 138.186Z" fill="#2F2E41"/>
<path d="M300.892 177.571H225.319C222.504 177.568 219.806 176.669 217.815 175.071C215.825 173.472 214.705 171.304 214.702 169.044V77.8345C214.705 75.5737 215.825 73.4062 217.815 71.8076C219.806 70.2089 222.504 69.3097 225.319 69.3071H300.892C303.707 69.3097 306.406 70.2089 308.397 71.8076C310.387 73.4062 311.507 75.5737 311.51 77.8345V169.044C311.507 171.304 310.387 173.472 308.397 175.071C306.406 176.669 303.707 177.568 300.892 177.571ZM225.319 70.3104C222.836 70.3126 220.454 71.1061 218.698 72.5166C216.942 73.9272 215.954 75.8397 215.951 77.8345V169.044C215.954 171.038 216.942 172.951 218.698 174.362C220.454 175.772 222.836 176.566 225.319 176.568H300.892C303.376 176.566 305.757 175.772 307.514 174.362C309.27 172.951 310.258 171.038 310.261 169.044V77.8345C310.258 75.8397 309.27 73.9272 307.514 72.5166C305.757 71.1061 303.376 70.3126 300.892 70.3104H225.319Z" fill="#3F3D56"/>
<path d="M289.338 113.156H236.874C235.466 113.155 234.117 112.705 233.122 111.906C232.126 111.107 231.567 110.023 231.565 108.892V88.8279C231.567 87.6975 232.126 86.6137 233.122 85.8144C234.117 85.0151 235.466 84.5655 236.874 84.5642H289.338C290.745 84.5655 292.095 85.0151 293.09 85.8145C294.085 86.6138 294.645 87.6975 294.647 88.8279V108.892C294.645 110.023 294.085 111.107 293.09 111.906C292.095 112.705 290.745 113.155 289.338 113.156Z" fill="#072772"/>
<path d="M285.59 131.966H240.621C239.296 131.966 238.025 131.544 237.088 130.791C236.151 130.039 235.625 129.018 235.625 127.954C235.625 126.889 236.151 125.869 237.088 125.116C238.025 124.363 239.296 123.941 240.621 123.941H285.59C286.916 123.941 288.186 124.363 289.123 125.116C290.06 125.869 290.587 126.889 290.587 127.954C290.587 129.018 290.06 130.039 289.123 130.791C288.186 131.544 286.916 131.966 285.59 131.966Z" fill="#CCCCCC"/>
<path d="M285.59 147.015H240.621C239.296 147.015 238.025 146.592 237.088 145.839C236.151 145.087 235.625 144.066 235.625 143.002C235.625 141.938 236.151 140.917 237.088 140.164C238.025 139.412 239.296 138.989 240.621 138.989H285.59C286.916 138.989 288.186 139.412 289.123 140.164C290.06 140.917 290.587 141.938 290.587 143.002C290.587 144.066 290.06 145.087 289.123 145.839C288.186 146.592 286.916 147.015 285.59 147.015Z" fill="#CCCCCC"/>
<path d="M285.59 162.063H240.621C239.296 162.063 238.025 161.641 237.088 160.888C236.151 160.135 235.625 159.115 235.625 158.051C235.625 156.986 236.151 155.966 237.088 155.213C238.025 154.46 239.296 154.038 240.621 154.038H285.59C286.916 154.038 288.186 154.46 289.123 155.213C290.06 155.966 290.587 156.986 290.587 158.051C290.587 159.115 290.06 160.135 289.123 160.888C288.186 161.641 286.916 162.063 285.59 162.063Z" fill="#CCCCCC"/>
<path d="M485.14 228.736H409.567C406.752 228.733 404.053 227.834 402.063 226.235C400.072 224.636 398.953 222.469 398.95 220.208V128.999C398.953 126.738 400.072 124.571 402.063 122.972C404.053 121.373 406.752 120.474 409.567 120.472H485.14C487.955 120.474 490.654 121.373 492.644 122.972C494.635 124.571 495.755 126.738 495.758 128.999V220.208C495.755 222.469 494.635 224.636 492.644 226.235C490.654 227.834 487.955 228.733 485.14 228.736ZM409.567 121.475C407.083 121.477 404.702 122.271 402.946 123.681C401.189 125.092 400.202 127.004 400.199 128.999V220.208C400.202 222.203 401.189 224.115 402.946 225.526C404.702 226.937 407.083 227.73 409.567 227.732H485.14C487.624 227.73 490.005 226.937 491.762 225.526C493.518 224.115 494.506 222.203 494.509 220.208V128.999C494.506 127.004 493.518 125.092 491.762 123.681C490.005 122.271 487.624 121.477 485.14 121.475H409.567Z" fill="#3F3D56"/>
<path d="M469.838 143.002H424.869C423.544 143.002 422.273 142.579 421.336 141.827C420.399 141.074 419.873 140.053 419.873 138.989C419.873 137.925 420.399 136.904 421.336 136.151C422.273 135.399 423.544 134.976 424.869 134.976H469.838C471.163 134.976 472.434 135.399 473.371 136.151C474.308 136.904 474.835 137.925 474.835 138.989C474.835 140.053 474.308 141.074 473.371 141.827C472.434 142.579 471.163 143.002 469.838 143.002Z" fill="#CCCCCC"/>
<path d="M469.838 158.05H424.869C423.544 158.05 422.273 157.628 421.336 156.875C420.399 156.123 419.873 155.102 419.873 154.038C419.873 152.973 420.399 151.953 421.336 151.2C422.273 150.447 423.544 150.025 424.869 150.025H469.838C471.163 150.025 472.434 150.447 473.371 151.2C474.308 151.953 474.835 152.973 474.835 154.038C474.835 155.102 474.308 156.123 473.371 156.875C472.434 157.628 471.163 158.05 469.838 158.05Z" fill="#CCCCCC"/>
<path d="M473.586 196.423H421.122C419.714 196.422 418.365 195.972 417.37 195.173C416.375 194.374 415.815 193.29 415.813 192.16V172.095C415.815 170.965 416.375 169.881 417.37 169.082C418.365 168.283 419.714 167.833 421.122 167.832H473.586C474.993 167.833 476.342 168.283 477.338 169.082C478.333 169.881 478.893 170.965 478.894 172.095V192.16C478.893 193.29 478.333 194.374 477.338 195.173C476.342 195.972 474.993 196.422 473.586 196.423Z" fill="#E6E6E6"/>
<path d="M469.838 214.231H424.869C423.544 214.231 422.273 213.808 421.336 213.056C420.399 212.303 419.873 211.282 419.873 210.218C419.873 209.154 420.399 208.133 421.336 207.38C422.273 206.628 423.544 206.205 424.869 206.205H469.838C471.163 206.205 472.434 206.628 473.371 207.38C474.308 208.133 474.835 209.154 474.835 210.218C474.835 211.282 474.308 212.303 473.371 213.056C472.434 213.808 471.163 214.231 469.838 214.231Z" fill="#CCCCCC"/>
<path d="M438.922 83.7693H363.349C360.534 83.7668 357.835 82.8675 355.845 81.2689C353.854 79.6702 352.735 77.5027 352.732 75.2419V18.6441C352.735 16.3833 353.854 14.2158 355.845 12.6171C357.835 11.0185 360.534 10.1192 363.349 10.1167H438.922C441.737 10.1192 444.436 11.0185 446.426 12.6171C448.417 14.2158 449.537 16.3833 449.54 18.6441V75.2419C449.537 77.5027 448.417 79.6702 446.426 81.2689C444.436 82.8675 441.737 83.7668 438.922 83.7693ZM363.349 11.1199C360.865 11.1222 358.484 11.9156 356.728 13.3262C354.971 14.7368 353.983 16.6493 353.981 18.6441V75.2419C353.983 77.2367 354.971 79.1492 356.728 80.5598C358.484 81.9704 360.865 82.7638 363.349 82.7661H438.922C441.406 82.7638 443.787 81.9704 445.543 80.5598C447.3 79.1492 448.288 77.2367 448.291 75.2419V18.6441C448.288 16.6493 447.3 14.7368 445.543 13.3262C443.787 11.9156 441.406 11.1222 438.922 11.1199H363.349Z" fill="#3F3D56"/>
<path d="M423.62 66.0043H378.651C377.326 66.0043 376.055 65.5815 375.118 64.829C374.181 64.0764 373.655 63.0557 373.655 61.9914C373.655 60.9271 374.181 59.9064 375.118 59.1539C376.055 58.4013 377.326 57.9785 378.651 57.9785H423.62C424.945 57.9785 426.216 58.4013 427.153 59.1539C428.09 59.9064 428.617 60.9271 428.617 61.9914C428.617 63.0557 428.09 64.0764 427.153 64.829C426.216 65.5815 424.945 66.0043 423.62 66.0043Z" fill="#CCCCCC"/>
<path d="M423.62 50.956H378.651C377.326 50.956 376.055 50.5332 375.118 49.7806C374.181 49.0281 373.655 48.0074 373.655 46.9431C373.655 45.8788 374.181 44.8581 375.118 44.1055C376.055 43.353 377.326 42.9302 378.651 42.9302H423.62C424.945 42.9302 426.216 43.353 427.153 44.1055C428.09 44.8581 428.617 45.8788 428.617 46.9431C428.617 48.0074 428.09 49.0281 427.153 49.7806C426.216 50.5332 424.945 50.956 423.62 50.956Z" fill="#CCCCCC"/>
<path d="M423.62 35.9076H378.651C377.326 35.9076 376.055 35.4849 375.118 34.7323C374.181 33.9797 373.655 32.959 373.655 31.8947C373.655 30.8305 374.181 29.8098 375.118 29.0572C376.055 28.3046 377.326 27.8818 378.651 27.8818H423.62C424.945 27.8818 426.216 28.3046 427.153 29.0572C428.09 29.8098 428.617 30.8305 428.617 31.8947C428.617 32.959 428.09 33.9797 427.153 34.7323C426.216 35.4849 424.945 35.9076 423.62 35.9076Z" fill="#CCCCCC"/>
<path d="M305.264 83.2678C313.198 83.2678 319.629 78.1025 319.629 71.7307C319.629 65.3589 313.198 60.1936 305.264 60.1936C297.331 60.1936 290.899 65.3589 290.899 71.7307C290.899 78.1025 297.331 83.2678 305.264 83.2678Z" fill="#072772"/>
<path d="M303.84 76.1318C303.517 76.1323 303.202 76.0483 302.944 75.8926L302.928 75.883L299.552 73.8071C299.395 73.7111 299.263 73.5912 299.164 73.4542C299.064 73.3171 299 73.1657 298.973 73.0086C298.947 72.8514 298.96 72.6917 299.011 72.5385C299.061 72.3853 299.149 72.2416 299.269 72.1157C299.389 71.9899 299.539 71.8843 299.71 71.8051C299.881 71.7258 300.07 71.6745 300.266 71.6539C300.461 71.6334 300.66 71.6441 300.851 71.6854C301.042 71.7268 301.22 71.7979 301.376 71.8948L303.563 73.2414L308.73 67.829C308.85 67.7035 309 67.5982 309.17 67.519C309.341 67.4399 309.529 67.3885 309.724 67.3678C309.92 67.3471 310.118 67.3575 310.308 67.3984C310.499 67.4393 310.677 67.5098 310.833 67.6061L310.801 67.6411L310.834 67.6066C311.149 67.8012 311.356 68.0883 311.408 68.4049C311.46 68.7216 311.353 69.0418 311.112 69.2955L305.034 75.6617C304.893 75.8084 304.712 75.9271 304.505 76.0086C304.298 76.0902 304.071 76.1323 303.84 76.1318Z" fill="white"/>
<path d="M492.635 134.934C500.568 134.934 507 129.768 507 123.397C507 117.025 500.568 111.86 492.635 111.86C484.701 111.86 478.27 117.025 478.27 123.397C478.27 129.768 484.701 134.934 492.635 134.934Z" fill="#3F3D56"/>
<path d="M491.211 127.798C490.888 127.798 490.573 127.714 490.315 127.559L490.299 127.549L486.923 125.473C486.766 125.377 486.634 125.257 486.534 125.12C486.435 124.983 486.37 124.832 486.344 124.675C486.318 124.517 486.331 124.358 486.381 124.204C486.432 124.051 486.52 123.908 486.64 123.782C486.76 123.656 486.91 123.55 487.081 123.471C487.252 123.392 487.441 123.34 487.636 123.32C487.832 123.299 488.031 123.31 488.222 123.351C488.412 123.393 488.591 123.464 488.747 123.561L490.934 124.907L496.101 119.495C496.221 119.37 496.37 119.264 496.541 119.185C496.711 119.106 496.9 119.054 497.095 119.034C497.29 119.013 497.489 119.023 497.679 119.064C497.869 119.105 498.048 119.176 498.204 119.272L498.172 119.307L498.205 119.273C498.52 119.467 498.726 119.754 498.778 120.071C498.83 120.388 498.724 120.708 498.482 120.961L492.404 127.328C492.264 127.474 492.083 127.593 491.876 127.675C491.669 127.756 491.442 127.798 491.211 127.798Z" fill="white"/>
<path d="M447.041 23.0742C454.975 23.0742 461.406 17.9089 461.406 11.5371C461.406 5.16533 454.975 0 447.041 0C439.108 0 432.676 5.16533 432.676 11.5371C432.676 17.9089 439.108 23.0742 447.041 23.0742Z" fill="#3F3D56"/>
<path d="M445.618 15.9382C445.294 15.9387 444.98 15.8547 444.721 15.699L444.705 15.6894L441.329 13.6135C441.172 13.5175 441.04 13.3976 440.941 13.2606C440.841 13.1235 440.777 12.9721 440.751 12.815C440.724 12.6578 440.737 12.4981 440.788 12.3448C440.839 12.1916 440.927 12.048 441.047 11.9221C441.167 11.7963 441.316 11.6907 441.487 11.6115C441.658 11.5322 441.847 11.4809 442.043 11.4603C442.239 11.4398 442.438 11.4505 442.628 11.4918C442.819 11.5332 442.997 11.6043 443.154 11.7012L445.34 13.0478L450.508 7.63544C450.627 7.50991 450.777 7.40456 450.947 7.32541C451.118 7.24627 451.306 7.19488 451.501 7.17418C451.697 7.15348 451.895 7.16386 452.085 7.20476C452.276 7.24565 452.454 7.31624 452.61 7.4125L452.578 7.44753L452.611 7.41301C452.927 7.60762 453.133 7.89473 453.185 8.21134C453.237 8.52796 453.13 8.84822 452.889 9.10187L446.811 15.4681C446.67 15.6148 446.489 15.7335 446.283 15.815C446.076 15.8966 445.848 15.9387 445.618 15.9382Z" fill="white"/>
<path d="M238.585 311H0.624569C0.458923 311 0.300061 310.947 0.182932 310.853C0.0658021 310.759 0 310.631 0 310.498C0 310.365 0.0658021 310.238 0.182932 310.144C0.300061 310.05 0.458923 309.997 0.624569 309.997H238.585C238.751 309.997 238.91 310.05 239.027 310.144C239.144 310.238 239.21 310.365 239.21 310.498C239.21 310.631 239.144 310.759 239.027 310.853C238.91 310.947 238.751 311 238.585 311Z" fill="#3F3D56"/>
</g>
<defs>
<clipPath id="clip0_6_703">
<rect width="507" height="311" fill="white"/>
</clipPath>
</defs>
</svg>
