<svg width="630" height="478" viewBox="0 0 630 478" fill="none" xmlns="http://www.w3.org/2000/svg">
<g clip-path="url(#clip0_8_786)">
<path d="M294.706 378.392L304.658 373.793L292.193 330.998L277.503 337.785L294.706 378.392Z" fill="#FFB6B6"/>
<path d="M287.577 366.773L302.465 355.917L306.574 362.757L327.571 363.824C328.608 363.876 329.601 364.27 330.407 364.947C331.212 365.624 331.786 366.549 332.046 367.587C332.306 368.625 332.238 369.721 331.852 370.716C331.465 371.711 330.781 372.553 329.899 373.118L311.492 384.908L304.255 380.175L307.081 387.734L300.141 392.179L287.577 366.773Z" fill="#2F2E41"/>
<path d="M550.362 297.391C550.362 293.087 548.963 289.594 547.244 289.586H78.7167C76.9903 289.594 75.5983 293.087 75.5905 297.391V474.562C75.5906 474.962 75.4466 475.347 75.1866 475.643C74.9266 475.939 74.5692 476.124 74.184 476.163C72.9264 476.288 71.6689 476.404 70.4114 476.511C70.3803 476.511 70.3492 476.519 70.318 476.519C69.6338 476.583 68.9494 476.631 68.2651 476.688H68.2573C67.9053 476.016 67.5573 475.338 67.2135 474.654C67.0972 474.424 67.0365 474.168 67.0364 473.908V287.265C67.0364 286.077 67.083 284.881 67.1608 283.7C67.2718 282.079 67.4665 280.466 67.744 278.866C69.0583 271.407 72.0289 266.356 75.4039 266.34H550.549C551.042 266.343 551.528 266.45 551.98 266.653C552.643 266.956 553.243 267.39 553.745 267.93C554.427 268.662 555.011 269.486 555.479 270.379C557.144 273.406 558.333 277.919 558.753 283.17C558.753 283.218 558.761 283.267 558.761 283.315C558.87 284.616 558.924 285.941 558.917 287.265L559.025 304.473L559.095 314.735L559.305 346.935L559.383 358.369L559.725 475.764C559.725 476.19 559.562 476.599 559.27 476.9C558.978 477.201 558.583 477.37 558.17 477.37H551.918C551.505 477.37 551.11 477.201 550.818 476.9C550.526 476.599 550.362 476.19 550.362 475.764V297.391Z" fill="#E6E6E6"/>
<path d="M423.048 185.821H372.564C371.85 185.822 371.165 186.116 370.661 186.638C370.156 187.16 369.874 187.868 369.874 188.605V270.953H425.745V188.605C425.745 188.239 425.676 187.877 425.54 187.539C425.405 187.201 425.206 186.894 424.956 186.636C424.705 186.377 424.408 186.172 424.081 186.032C423.753 185.892 423.403 185.821 423.048 185.821ZM397.976 232.61C396.397 232.602 394.885 231.951 393.769 230.799C392.652 229.646 392.022 228.085 392.015 226.454V216.956C392.016 215.325 392.645 213.761 393.763 212.608C394.881 211.455 396.396 210.808 397.976 210.808C399.556 210.808 401.071 211.455 402.189 212.608C403.307 213.761 403.936 215.325 403.937 216.956V226.454C403.93 228.085 403.3 229.646 402.183 230.799C401.067 231.951 399.555 232.602 397.976 232.61Z" fill="#2F2E41"/>
<path d="M369.701 268.319V276.264C369.702 276.676 369.861 277.071 370.143 277.362C370.424 277.653 370.807 277.817 371.205 277.817H424.414C424.812 277.815 425.194 277.651 425.476 277.36C425.757 277.069 425.916 276.676 425.918 276.264V268.319H369.701Z" fill="#3F3D56"/>
<path d="M304.838 71.1431C304.256 72.6535 303.362 74.0139 302.216 75.1286C301.071 76.2433 299.703 77.0851 298.208 77.5948C296.714 78.1044 295.129 78.2695 293.566 78.0784C292.003 77.8873 290.5 77.3447 289.162 76.4887L217.899 127.75L215.932 107.322L286 60.4472C287.541 58.2217 289.82 56.6574 292.404 56.0507C294.988 55.444 297.697 55.8371 300.019 57.1555C302.341 58.4739 304.114 60.626 305.002 63.204C305.89 65.782 305.832 68.6068 304.838 71.1431Z" fill="#FFB6B6"/>
<path d="M145.285 103.464C145.285 103.464 137.569 115.237 149.677 125.655C161.786 136.074 210.864 134.001 218.784 133.911C226.704 133.822 263.042 95.0069 263.042 95.0069L262.804 72.5898L218.931 99.4702L145.285 103.464Z" fill="#072772"/>
<path d="M140.916 181.627L141.694 196.884C141.694 196.884 139.399 210.398 141.286 213.315C143.16 216.216 194.609 220.533 194.609 220.533C194.609 220.533 192.996 197.78 195.905 181.322L140.916 181.627Z" fill="#FFB6B6"/>
<path d="M298.814 336.965L279.01 354.866L240.195 272.897C201.705 279.732 165.392 281.922 133.984 273.653C123.35 270.892 116.85 259.555 119.465 248.329C119.588 247.805 119.729 247.286 119.889 246.772C123.648 234.93 133.488 226.551 141.24 213.526L197.867 214.414L191.542 236.947L246.55 229.597C257.612 228.119 267.716 236.387 269.116 248.064C269.19 248.681 269.238 249.3 269.261 249.921L298.814 336.965Z" fill="#2F2E41"/>
<path d="M163.027 78.9569C175.726 78.9569 186.02 68.3271 186.02 55.2146C186.02 42.1022 175.726 31.4724 163.027 31.4724C150.328 31.4724 140.033 42.1022 140.033 55.2146C140.033 68.3271 150.328 78.9569 163.027 78.9569Z" fill="#FFB6B6"/>
<path d="M149.547 87.5278L170.63 90.0889C171.519 90.1969 172.353 90.5886 173.016 91.2094C173.68 91.8303 174.139 92.6493 174.33 93.5523L177.683 109.394L198.583 134.809C198.583 134.809 206.089 149.34 203.274 165.808C201.581 175.724 198.65 185.373 194.557 194.512C194.557 194.512 143.157 216.218 141.281 213.312C139.405 210.406 138.796 197.205 138.796 197.205L132.183 121.242C131.805 117.24 132.288 113.2 133.6 109.414C134.912 105.627 137.019 102.187 139.77 99.3407C141.438 97.6462 143.085 96.46 144.425 96.46C147.452 96.3546 147.064 89.3191 149.547 87.5278Z" fill="#072772"/>
<path d="M194.785 410.22L204.569 415.168L228.122 377.688L213.682 370.385L194.785 410.22Z" fill="#FFB6B6"/>
<path d="M218.222 401.749L198.122 393.869L225.709 308.316C188.231 296.97 159.961 278.694 135.278 257.001C126.905 249.691 120.625 240.304 127.757 231.411C128.09 230.996 128.438 230.594 128.801 230.205C137.222 221.278 158.594 222.996 171.105 214.82L199.087 245.667L197.333 253.931L249.864 272.318C260.428 276.015 265.978 288.03 262.261 299.152C262.065 299.739 261.844 300.317 261.6 300.886L218.222 401.749Z" fill="#2F2E41"/>
<path d="M194.452 404.248L211.268 411.506L207.839 418.734L218.117 437.669C218.625 438.604 218.83 439.682 218.702 440.746C218.574 441.81 218.121 442.804 217.407 443.583C216.694 444.362 215.758 444.885 214.736 445.075C213.714 445.266 212.66 445.114 211.728 444.643L192.276 434.803L192.315 425.957L187.614 432.445L180.28 428.735L194.452 404.248Z" fill="#2F2E41"/>
<path d="M161.567 273.254C160.249 272.367 159.134 271.192 158.303 269.812C157.472 268.432 156.943 266.88 156.755 265.267C156.568 263.653 156.725 262.017 157.216 260.473C157.706 258.929 158.519 257.514 159.597 256.33L125.047 174.053L144.828 176.107L175.451 256.306C177.258 258.307 178.292 260.923 178.356 263.658C178.421 266.394 177.511 269.058 175.799 271.147C174.088 273.237 171.694 274.605 169.071 274.993C166.448 275.381 163.778 274.763 161.567 273.254V273.254Z" fill="#FFB6B6"/>
<path d="M162.48 105.368C162.48 105.368 152.832 95.227 140.544 105.419C128.257 115.611 120.506 165.694 119.022 173.728C117.539 181.762 147.19 226.227 147.19 226.227L168.517 230.425L151.688 180.697L162.48 105.368Z" fill="#072772"/>
<path d="M506.646 57.3074H290.844C288.99 57.3104 287.213 58.0723 285.902 59.426C284.591 60.7797 283.853 62.6149 283.85 64.5293V214.896C283.852 216.811 284.589 218.647 285.901 220.001C287.212 221.355 288.99 222.116 290.844 222.118H506.646C508.501 222.116 510.279 221.355 511.59 220.001C512.902 218.647 513.639 216.811 513.641 214.896V64.5294C513.638 62.6149 512.9 60.7797 511.589 59.426C510.278 58.0723 508.501 57.3104 506.646 57.3074Z" fill="#3F3D56"/>
<path d="M504.845 62.5239H292.647C291.655 62.5262 290.703 62.9349 290.002 63.6605C289.301 64.3861 288.907 65.3692 288.907 66.3943V213.034C288.909 214.058 289.303 215.039 290.004 215.763C290.705 216.487 291.656 216.894 292.647 216.896H504.845C505.837 216.894 506.787 216.487 507.488 215.763C508.189 215.039 508.584 214.058 508.586 213.034V66.3943C508.586 65.3692 508.192 64.3861 507.49 63.6605C506.789 62.9349 505.838 62.5262 504.845 62.5239Z" fill="white"/>
<path d="M463.513 280.582H337.266C336.921 280.582 336.58 280.502 336.268 280.349C335.956 280.196 335.681 279.972 335.463 279.695C335.245 279.418 335.09 279.094 335.009 278.747C334.928 278.4 334.923 278.039 334.994 277.69L336.953 268.083C337.064 267.546 337.35 267.064 337.764 266.718C338.177 266.371 338.693 266.181 339.225 266.179H461.554C462.086 266.181 462.602 266.371 463.015 266.718C463.429 267.064 463.715 267.546 463.826 268.083L465.785 277.69C465.856 278.039 465.851 278.4 465.77 278.747C465.689 279.094 465.534 279.418 465.316 279.695C465.098 279.972 464.823 280.196 464.511 280.349C464.199 280.502 463.858 280.582 463.513 280.582H463.513Z" fill="#2F2E41"/>
<path d="M343.63 267.909H340.501C340.292 267.909 340.122 268.085 340.122 268.301V269.926C340.122 270.143 340.292 270.318 340.501 270.318H343.63C343.84 270.318 344.01 270.143 344.01 269.926V268.301C344.01 268.085 343.84 267.909 343.63 267.909Z" fill="#3F3D56"/>
<path d="M351.407 267.909H348.278C348.068 267.909 347.898 268.085 347.898 268.301V269.926C347.898 270.143 348.068 270.318 348.278 270.318H351.407C351.616 270.318 351.786 270.143 351.786 269.926V268.301C351.786 268.085 351.616 267.909 351.407 267.909Z" fill="#3F3D56"/>
<path d="M359.183 267.909H356.054C355.845 267.909 355.675 268.085 355.675 268.301V269.926C355.675 270.143 355.845 270.318 356.054 270.318H359.183C359.393 270.318 359.563 270.143 359.563 269.926V268.301C359.563 268.085 359.393 267.909 359.183 267.909Z" fill="#3F3D56"/>
<path d="M366.96 267.909H363.831C363.621 267.909 363.451 268.085 363.451 268.301V269.926C363.451 270.143 363.621 270.318 363.831 270.318H366.96C367.169 270.318 367.339 270.143 367.339 269.926V268.301C367.339 268.085 367.169 267.909 366.96 267.909Z" fill="#3F3D56"/>
<path d="M374.736 267.909H371.607C371.398 267.909 371.228 268.085 371.228 268.301V269.926C371.228 270.143 371.398 270.318 371.607 270.318H374.736C374.946 270.318 375.116 270.143 375.116 269.926V268.301C375.116 268.085 374.946 267.909 374.736 267.909Z" fill="#3F3D56"/>
<path d="M382.513 267.909H379.384C379.174 267.909 379.004 268.085 379.004 268.301V269.926C379.004 270.143 379.174 270.318 379.384 270.318H382.513C382.722 270.318 382.892 270.143 382.892 269.926V268.301C382.892 268.085 382.722 267.909 382.513 267.909Z" fill="#3F3D56"/>
<path d="M390.289 267.909H387.16C386.951 267.909 386.781 268.085 386.781 268.301V269.926C386.781 270.143 386.951 270.318 387.16 270.318H390.289C390.499 270.318 390.669 270.143 390.669 269.926V268.301C390.669 268.085 390.499 267.909 390.289 267.909Z" fill="#3F3D56"/>
<path d="M398.066 267.909H394.937C394.727 267.909 394.557 268.085 394.557 268.301V269.926C394.557 270.143 394.727 270.318 394.937 270.318H398.066C398.275 270.318 398.445 270.143 398.445 269.926V268.301C398.445 268.085 398.275 267.909 398.066 267.909Z" fill="#3F3D56"/>
<path d="M405.842 267.909H402.713C402.504 267.909 402.334 268.085 402.334 268.301V269.926C402.334 270.143 402.504 270.318 402.713 270.318H405.842C406.052 270.318 406.222 270.143 406.222 269.926V268.301C406.222 268.085 406.052 267.909 405.842 267.909Z" fill="#3F3D56"/>
<path d="M413.619 267.909H410.49C410.28 267.909 410.11 268.085 410.11 268.301V269.926C410.11 270.143 410.28 270.318 410.49 270.318H413.619C413.828 270.318 413.998 270.143 413.998 269.926V268.301C413.998 268.085 413.828 267.909 413.619 267.909Z" fill="#3F3D56"/>
<path d="M421.395 267.909H418.266C418.057 267.909 417.887 268.085 417.887 268.301V269.926C417.887 270.143 418.057 270.318 418.266 270.318H421.395C421.605 270.318 421.775 270.143 421.775 269.926V268.301C421.775 268.085 421.605 267.909 421.395 267.909Z" fill="#3F3D56"/>
<path d="M429.172 267.909H426.043C425.833 267.909 425.663 268.085 425.663 268.301V269.926C425.663 270.143 425.833 270.318 426.043 270.318H429.172C429.382 270.318 429.552 270.143 429.552 269.926V268.301C429.552 268.085 429.382 267.909 429.172 267.909Z" fill="#3F3D56"/>
<path d="M436.948 267.909H433.819C433.61 267.909 433.44 268.085 433.44 268.301V269.926C433.44 270.143 433.61 270.318 433.819 270.318H436.948C437.158 270.318 437.328 270.143 437.328 269.926V268.301C437.328 268.085 437.158 267.909 436.948 267.909Z" fill="#3F3D56"/>
<path d="M444.725 267.909H441.596C441.386 267.909 441.216 268.085 441.216 268.301V269.926C441.216 270.143 441.386 270.318 441.596 270.318H444.725C444.935 270.318 445.105 270.143 445.105 269.926V268.301C445.105 268.085 444.935 267.909 444.725 267.909Z" fill="#3F3D56"/>
<path d="M452.501 267.909H449.372C449.163 267.909 448.993 268.085 448.993 268.301V269.926C448.993 270.143 449.163 270.318 449.372 270.318H452.501C452.711 270.318 452.881 270.143 452.881 269.926V268.301C452.881 268.085 452.711 267.909 452.501 267.909Z" fill="#3F3D56"/>
<path d="M460.278 267.909H457.149C456.939 267.909 456.769 268.085 456.769 268.301V269.926C456.769 270.143 456.939 270.318 457.149 270.318H460.278C460.488 270.318 460.658 270.143 460.658 269.926V268.301C460.658 268.085 460.488 267.909 460.278 267.909Z" fill="#3F3D56"/>
<path d="M343.538 271.924H340.409C340.2 271.924 340.03 272.1 340.03 272.316V273.941C340.03 274.157 340.2 274.333 340.409 274.333H343.538C343.748 274.333 343.918 274.157 343.918 273.941V272.316C343.918 272.1 343.748 271.924 343.538 271.924Z" fill="#3F3D56"/>
<path d="M351.315 271.924H348.186C347.976 271.924 347.806 272.1 347.806 272.316V273.941C347.806 274.157 347.976 274.333 348.186 274.333H351.315C351.525 274.333 351.695 274.157 351.695 273.941V272.316C351.695 272.1 351.525 271.924 351.315 271.924Z" fill="#3F3D56"/>
<path d="M359.091 271.924H355.962C355.753 271.924 355.583 272.1 355.583 272.316V273.941C355.583 274.157 355.753 274.333 355.962 274.333H359.091C359.301 274.333 359.471 274.157 359.471 273.941V272.316C359.471 272.1 359.301 271.924 359.091 271.924Z" fill="#3F3D56"/>
<path d="M366.868 271.924H363.739C363.529 271.924 363.359 272.1 363.359 272.316V273.941C363.359 274.157 363.529 274.333 363.739 274.333H366.868C367.078 274.333 367.248 274.157 367.248 273.941V272.316C367.248 272.1 367.078 271.924 366.868 271.924Z" fill="#3F3D56"/>
<path d="M374.644 271.924H371.515C371.306 271.924 371.136 272.1 371.136 272.316V273.941C371.136 274.157 371.306 274.333 371.515 274.333H374.644C374.854 274.333 375.024 274.157 375.024 273.941V272.316C375.024 272.1 374.854 271.924 374.644 271.924Z" fill="#3F3D56"/>
<path d="M382.421 271.924H379.292C379.082 271.924 378.912 272.1 378.912 272.316V273.941C378.912 274.157 379.082 274.333 379.292 274.333H382.421C382.631 274.333 382.801 274.157 382.801 273.941V272.316C382.801 272.1 382.631 271.924 382.421 271.924Z" fill="#3F3D56"/>
<path d="M390.197 271.924H387.068C386.859 271.924 386.689 272.1 386.689 272.316V273.941C386.689 274.157 386.859 274.333 387.068 274.333H390.197C390.407 274.333 390.577 274.157 390.577 273.941V272.316C390.577 272.1 390.407 271.924 390.197 271.924Z" fill="#3F3D56"/>
<path d="M397.974 271.924H394.845C394.635 271.924 394.465 272.1 394.465 272.316V273.941C394.465 274.157 394.635 274.333 394.845 274.333H397.974C398.184 274.333 398.354 274.157 398.354 273.941V272.316C398.354 272.1 398.184 271.924 397.974 271.924Z" fill="#3F3D56"/>
<path d="M405.75 271.924H402.621C402.412 271.924 402.242 272.1 402.242 272.316V273.941C402.242 274.157 402.412 274.333 402.621 274.333H405.75C405.96 274.333 406.13 274.157 406.13 273.941V272.316C406.13 272.1 405.96 271.924 405.75 271.924Z" fill="#3F3D56"/>
<path d="M413.527 271.924H410.398C410.188 271.924 410.018 272.1 410.018 272.316V273.941C410.018 274.157 410.188 274.333 410.398 274.333H413.527C413.737 274.333 413.907 274.157 413.907 273.941V272.316C413.907 272.1 413.737 271.924 413.527 271.924Z" fill="#3F3D56"/>
<path d="M421.304 271.924H418.175C417.965 271.924 417.795 272.1 417.795 272.316V273.941C417.795 274.157 417.965 274.333 418.175 274.333H421.304C421.513 274.333 421.683 274.157 421.683 273.941V272.316C421.683 272.1 421.513 271.924 421.304 271.924Z" fill="#3F3D56"/>
<path d="M429.08 271.924H425.951C425.741 271.924 425.571 272.1 425.571 272.316V273.941C425.571 274.157 425.741 274.333 425.951 274.333H429.08C429.29 274.333 429.46 274.157 429.46 273.941V272.316C429.46 272.1 429.29 271.924 429.08 271.924Z" fill="#3F3D56"/>
<path d="M436.856 271.924H433.728C433.518 271.924 433.348 272.1 433.348 272.316V273.941C433.348 274.157 433.518 274.333 433.728 274.333H436.856C437.066 274.333 437.236 274.157 437.236 273.941V272.316C437.236 272.1 437.066 271.924 436.856 271.924Z" fill="#3F3D56"/>
<path d="M444.633 271.924H441.504C441.294 271.924 441.124 272.1 441.124 272.316V273.941C441.124 274.157 441.294 274.333 441.504 274.333H444.633C444.843 274.333 445.013 274.157 445.013 273.941V272.316C445.013 272.1 444.843 271.924 444.633 271.924Z" fill="#3F3D56"/>
<path d="M452.409 271.924H449.28C449.071 271.924 448.901 272.1 448.901 272.316V273.941C448.901 274.157 449.071 274.333 449.28 274.333H452.409C452.619 274.333 452.789 274.157 452.789 273.941V272.316C452.789 272.1 452.619 271.924 452.409 271.924Z" fill="#3F3D56"/>
<path d="M460.186 271.924H457.057C456.847 271.924 456.677 272.1 456.677 272.316V273.941C456.677 274.157 456.847 274.333 457.057 274.333H460.186C460.396 274.333 460.566 274.157 460.566 273.941V272.316C460.566 272.1 460.396 271.924 460.186 271.924Z" fill="#3F3D56"/>
<path d="M408.083 276.742H377.737C377.527 276.742 377.357 276.917 377.357 277.134V278.759C377.357 278.975 377.527 279.151 377.737 279.151H408.083C408.293 279.151 408.463 278.975 408.463 278.759V277.134C408.463 276.917 408.293 276.742 408.083 276.742Z" fill="#3F3D56"/>
<path d="M490.231 463.85L484.235 453.901L483.038 459.586C482.828 460.582 482.618 461.593 482.423 462.597C480.72 461.096 478.908 459.706 477.136 458.374C471.692 454.294 466.251 450.21 460.812 446.12L462.516 456.318C463.565 462.597 464.662 469.005 467.259 474.746C467.547 475.397 467.858 476.039 468.193 476.665H493.497C493.701 476.084 493.842 475.48 493.917 474.867C493.924 474.827 493.926 474.787 493.925 474.746C494.322 470.852 492.237 467.182 490.231 463.85Z" fill="#F0F0F0"/>
<path d="M148.064 463.85L142.069 453.901L140.871 459.586C140.661 460.582 140.451 461.593 140.257 462.597C138.554 461.096 136.742 459.706 134.969 458.374C129.525 454.294 124.084 450.21 118.646 446.12L120.349 456.318C121.399 462.597 122.495 469.005 125.093 474.746C125.38 475.397 125.691 476.039 126.026 476.665H151.331C151.534 476.084 151.675 475.48 151.751 474.867C151.757 474.827 151.759 474.787 151.758 474.746C152.155 470.852 150.071 467.182 148.064 463.85Z" fill="#F0F0F0"/>
<path d="M629.074 477.753L414.637 478C414.392 477.999 414.157 477.898 413.984 477.719C413.811 477.54 413.713 477.297 413.713 477.044C413.713 476.791 413.811 476.548 413.984 476.369C414.157 476.19 414.392 476.089 414.637 476.088L629.074 475.841C629.319 475.842 629.554 475.943 629.727 476.122C629.9 476.301 629.997 476.544 629.997 476.797C629.997 477.05 629.9 477.293 629.727 477.472C629.554 477.651 629.319 477.753 629.074 477.753Z" fill="#CACACA"/>
<path d="M215.363 477.753L0.926006 478C0.680897 477.999 0.446075 477.898 0.273007 477.719C0.0999393 477.54 0.00274658 477.297 0.00274658 477.044C0.00274658 476.791 0.0999393 476.548 0.273007 476.369C0.446075 476.19 0.680897 476.089 0.926006 476.088L215.363 475.841C215.609 475.842 215.843 475.943 216.016 476.122C216.19 476.301 216.287 476.544 216.287 476.797C216.287 477.05 216.19 477.293 216.016 477.472C215.843 477.651 215.609 477.753 215.363 477.753Z" fill="#CACACA"/>
<path d="M138.711 34.0503C135.002 35.1905 131.541 31.9866 128.959 28.9514L129.877 30.0755C123.804 34.4919 120.172 41.6866 117.816 48.9696C115.459 56.2445 114.145 63.8648 111.486 71.0354C108.826 78.1979 104.533 85.1276 97.9623 88.7009C89.1593 93.4866 78.3732 91.3105 69.0103 87.8577C68.8859 87.8096 68.7692 87.7694 68.6448 87.7212C72.437 80.4071 74.7593 72.3773 75.4726 64.1137C71.6209 71.8783 66.0661 78.6067 59.2508 83.7626C53.1329 80.891 47.2502 77.5128 41.6603 73.6611C38.0442 71.1639 34.2337 67.9359 33.8138 63.4633C33.3861 59.0229 36.5978 54.9678 40.385 52.8319C44.1721 50.696 48.527 49.9733 52.6641 48.6885C56.7934 47.4118 61.0083 45.316 63.1779 41.4617C68.1782 32.5969 59.764 20.0945 65.1298 11.4545C67.7738 7.20676 72.9063 5.50445 77.6656 4.32407C84.9298 2.52993 92.3032 1.24492 99.7353 0.477819C106.26 -0.196681 113.002 -0.445602 119.208 1.72244C125.413 3.89047 131.044 8.92513 132.373 15.5577C135.997 17.525 139.831 19.7011 141.775 23.4349C143.719 27.1607 142.638 32.8458 138.711 34.0503Z" fill="#2F2E41"/>
<path d="M133.174 32.5564C129.622 37.1509 127.688 42.1196 127.688 45.0952C120.31 59.0205 130.861 70.9818 144.348 78.6008C149.727 81.6556 155.938 82.7737 162.001 81.7786L162.565 79.2916L163.33 81.5318C163.33 81.5318 172.11 111.477 175.006 113.234C173.907 107.905 172.648 83.2294 172.037 78.0283C171.19 70.9494 174.142 60.4108 176.272 54.0019C177.593 50.0521 178.271 45.9037 178.278 41.7251V41.5424L180.352 48.4211L187.903 45.0952C186.498 36.7756 187.903 27.3309 171.062 28.15C161.953 21.6817 153.932 20.6964 147.344 22.531C146.493 21.1736 141.59 23.716 140.173 23.0012" fill="#2F2E41"/>
<path d="M508.586 66.3943V213.034C508.584 214.058 508.189 215.039 507.488 215.763C506.787 216.487 505.837 216.894 504.845 216.896H430.02C421.742 208.97 414.951 199.535 409.987 189.065C409.661 188.391 409.35 187.708 409.054 187.017C404.532 176.884 401.793 165.999 400.967 154.874C400.912 154.192 400.865 153.509 400.834 152.819C400.733 151.052 400.687 149.261 400.687 147.463C400.672 135.5 402.859 123.644 407.133 112.525C407.39 111.835 407.662 111.152 407.942 110.47C416.543 89.6026 432.085 72.5976 451.763 62.5239H504.845C505.838 62.5262 506.789 62.9349 507.491 63.6605C508.192 64.3861 508.586 65.3692 508.586 66.3943Z" fill="#072772"/>
<path d="M494.178 82.7275H295.626C295.419 82.7228 295.223 82.6349 295.078 82.4825C294.934 82.3301 294.853 82.1254 294.853 81.9122C294.853 81.699 294.934 81.4943 295.078 81.3419C295.223 81.1896 295.419 81.1016 295.626 81.0969H494.178C494.385 81.1016 494.581 81.1896 494.726 81.3419C494.87 81.4943 494.951 81.699 494.951 81.9122C494.951 82.1254 494.87 82.3301 494.726 82.4825C494.581 82.6349 494.385 82.7228 494.178 82.7275Z" fill="#CACACA"/>
<path d="M309.141 76.9341C311.697 76.9341 313.769 74.7472 313.769 72.0496C313.769 69.3519 311.697 67.165 309.141 67.165C306.586 67.165 304.514 69.3519 304.514 72.0496C304.514 74.7472 306.586 76.9341 309.141 76.9341Z" fill="#3F3D56"/>
<path d="M325.127 76.9341C327.682 76.9341 329.754 74.7472 329.754 72.0496C329.754 69.3519 327.682 67.165 325.127 67.165C322.571 67.165 320.5 69.3519 320.5 72.0496C320.5 74.7472 322.571 76.9341 325.127 76.9341Z" fill="#3F3D56"/>
<path d="M341.112 76.9341C343.668 76.9341 345.74 74.7472 345.74 72.0496C345.74 69.3519 343.668 67.165 341.112 67.165C338.557 67.165 336.485 69.3519 336.485 72.0496C336.485 74.7472 338.557 76.9341 341.112 76.9341Z" fill="#3F3D56"/>
<path d="M484.554 68.3757H473.199C472.974 68.3803 472.759 68.4759 472.602 68.6419C472.444 68.8079 472.356 69.0311 472.356 69.2635C472.356 69.496 472.444 69.7192 472.602 69.8852C472.759 70.0512 472.974 70.1467 473.199 70.1513H484.554C484.779 70.1467 484.993 70.0512 485.151 69.8852C485.309 69.7192 485.397 69.496 485.397 69.2635C485.397 69.0311 485.309 68.8079 485.151 68.6419C484.993 68.4759 484.779 68.3803 484.554 68.3757Z" fill="#3F3D56"/>
<path d="M484.554 71.7083H473.199C472.974 71.7128 472.759 71.8084 472.602 71.9744C472.444 72.1404 472.356 72.3636 472.356 72.596C472.356 72.8285 472.444 73.0517 472.602 73.2177C472.759 73.3837 472.974 73.4793 473.199 73.4838H484.554C484.779 73.4793 484.993 73.3837 485.151 73.2177C485.309 73.0517 485.397 72.8285 485.397 72.596C485.397 72.3636 485.309 72.1404 485.151 71.9744C484.993 71.8084 484.779 71.7128 484.554 71.7083Z" fill="#3F3D56"/>
<path d="M484.554 75.0364H473.199C472.974 75.041 472.759 75.1365 472.602 75.3025C472.444 75.4685 472.356 75.6917 472.356 75.9242C472.356 76.1566 472.444 76.3798 472.602 76.5458C472.759 76.7118 472.974 76.8074 473.199 76.812H484.554C484.779 76.8074 484.993 76.7118 485.151 76.5458C485.309 76.3798 485.397 76.1566 485.397 75.9242C485.397 75.6917 485.309 75.4685 485.151 75.3025C484.993 75.1365 484.779 75.041 484.554 75.0364Z" fill="#3F3D56"/>
<path d="M354.942 130.358H330.132C328.269 130.358 326.758 131.918 326.758 133.842V133.843C326.758 135.767 328.269 137.327 330.132 137.327H354.942C356.806 137.327 358.316 135.767 358.316 133.842C358.316 131.918 356.806 130.358 354.942 130.358Z" fill="#072772"/>
<path d="M370.97 144.295H314.105C312.241 144.295 310.73 145.855 310.73 147.779C310.73 149.703 312.241 151.263 314.105 151.263H370.97C372.833 151.263 374.344 149.703 374.344 147.779C374.344 145.855 372.833 144.295 370.97 144.295Z" fill="#E6E6E6"/>
<path d="M371.239 84H314.374C312.511 84 311 85.5599 311 87.4841V87.4841C311 89.4083 312.511 90.9682 314.374 90.9682H371.239C373.103 90.9682 374.614 89.4083 374.614 87.4841C374.614 85.5599 373.103 84 371.239 84Z" fill="#E6E6E6"/>
<path d="M315.922 208.489C315.927 211.359 315.432 214.207 314.46 216.896H292.647C291.656 216.894 290.705 216.487 290.004 215.763C289.303 215.039 288.909 214.058 288.907 213.034V184.705C290.126 184.501 291.358 184.399 292.593 184.4C295.657 184.399 298.69 185.022 301.521 186.233C304.352 187.443 306.923 189.218 309.09 191.455C311.256 193.692 312.975 196.347 314.147 199.27C315.319 202.193 315.923 205.325 315.922 208.489Z" fill="#072772"/>
<path opacity="0.2" d="M508.78 112.525V110.47H475.411V86.6453H473.428V110.47H435.183V86.6453H433.2V110.47H407.942C407.662 111.152 407.39 111.835 407.133 112.525H433.2V152.819H400.834C400.865 153.509 400.912 154.192 400.966 154.874H433.2V187.017H409.054C409.35 187.708 409.661 188.39 409.987 189.065H433.2V216.085H435.183V189.065H473.428V216.085H475.411V189.065H508.78V187.017H475.411V154.874H508.78V152.819H475.411V112.525H508.78ZM473.428 187.017H435.183V154.874H473.428V187.017ZM473.428 152.819H435.183V112.525H473.428V152.819Z" fill="black"/>
<path d="M481.913 201.683C481.487 201.703 481.066 201.588 480.706 201.352C480.346 201.117 480.065 200.773 479.9 200.367C479.736 199.961 479.696 199.513 479.787 199.083C479.878 198.653 480.094 198.262 480.407 197.964L480.549 197.379C480.531 197.332 480.512 197.286 480.493 197.239C480.064 196.193 479.345 195.301 478.427 194.676C477.509 194.05 476.433 193.719 475.333 193.723C474.233 193.727 473.159 194.067 472.245 194.7C471.332 195.332 470.62 196.229 470.199 197.278C468.515 201.465 466.371 205.66 465.844 210.087C465.611 212.044 465.709 214.027 466.133 215.95C462.179 207.043 460.126 197.362 460.112 187.563C460.112 185.105 460.244 182.648 460.509 180.204C460.727 178.201 461.031 176.212 461.42 174.237C463.539 163.523 468.09 153.481 474.698 144.935C477.896 143.133 480.482 140.362 482.109 136.996C482.698 135.786 483.114 134.494 483.345 133.161C482.984 133.209 482.617 133.24 482.257 133.264C482.144 133.27 482.026 133.277 481.913 133.283L481.871 133.285C481.475 133.303 481.081 133.203 480.739 132.996C480.396 132.789 480.119 132.484 479.94 132.118C479.762 131.752 479.689 131.34 479.732 130.933C479.774 130.525 479.93 130.139 480.18 129.821C480.336 129.623 480.492 129.425 480.648 129.228C480.884 128.922 481.127 128.623 481.363 128.318C481.391 128.289 481.416 128.258 481.44 128.226C481.712 127.878 481.984 127.536 482.257 127.188C481.76 126.392 481.092 125.725 480.305 125.24C477.578 123.591 473.816 124.733 471.847 127.279C469.871 129.826 469.499 133.399 470.185 136.581C470.86 139.288 471.976 141.857 473.485 144.178C473.337 144.373 473.184 144.563 473.036 144.758C470.333 148.347 467.977 152.201 466.002 156.264C466.482 151.712 465.909 147.107 464.329 142.828C462.729 138.841 459.728 135.482 457.086 132.035C453.912 127.894 447.403 129.701 446.844 134.95C446.839 135.001 446.833 135.052 446.828 135.103C447.221 135.331 447.605 135.574 447.981 135.831C448.453 136.156 448.819 136.622 449.031 137.166C449.242 137.71 449.29 138.308 449.167 138.88C449.044 139.453 448.757 139.974 448.342 140.375C447.928 140.776 447.406 141.038 446.844 141.127L446.787 141.137C446.927 142.597 447.174 144.045 447.526 145.467C448.547 149.436 450.351 153.145 452.825 156.361C455.3 159.577 458.391 162.23 461.904 164.154C462.135 164.277 462.36 164.399 462.591 164.515C460.606 170.321 459.362 176.369 458.888 182.507C458.62 186.128 458.636 189.765 458.935 193.383L458.918 193.255C458.161 189.232 456.082 185.601 453.033 182.977C448.504 179.135 442.105 177.721 437.22 174.633C436.7 174.289 436.097 174.105 435.48 174.104C434.862 174.102 434.258 174.283 433.737 174.624C433.216 174.966 432.801 175.454 432.54 176.032C432.279 176.609 432.183 177.251 432.264 177.883C432.271 177.928 432.278 177.973 432.284 178.018C433.013 178.324 433.722 178.677 434.408 179.074C434.8 179.303 435.184 179.546 435.56 179.802C436.032 180.128 436.398 180.594 436.61 181.138C436.822 181.682 436.869 182.279 436.746 182.852C436.624 183.425 436.336 183.945 435.922 184.346C435.507 184.747 434.985 185.01 434.424 185.099L434.366 185.108C434.325 185.114 434.289 185.12 434.248 185.127C435.492 188.195 437.239 191.019 439.411 193.475C442.095 196.448 445.338 198.824 448.943 200.457C452.547 202.09 456.437 202.946 460.373 202.972H460.379C461.447 207.766 462.995 212.432 464.998 216.896H481.499C481.559 216.707 481.612 216.511 481.665 216.322C480.138 216.421 478.604 216.327 477.099 216.041C478.323 214.49 479.548 212.926 480.772 211.375C480.799 211.346 480.825 211.316 480.849 211.284C481.47 210.49 482.097 209.702 482.718 208.908L482.718 208.907C482.751 206.473 482.481 204.045 481.913 201.683L481.913 201.683ZM463.016 163.3L463.025 163.287L463.016 163.312V163.3ZM459.361 197.323L459.219 196.993C459.225 196.755 459.225 196.517 459.219 196.272C459.219 196.205 459.207 196.138 459.207 196.071C459.261 196.492 459.308 196.914 459.367 197.335L459.361 197.323Z" fill="#2F2E41"/>
</g>
<defs>
<clipPath id="clip0_8_786">
<rect width="630" height="478" fill="white"/>
</clipPath>
</defs>
</svg>
